<svg xmlns="http://www.w3.org/2000/svg" viewBox="0 0 2048 2048" width="512" height="512"><path transform="translate(354)" d="m0 0h1464l18 6 13 7 10 8 10 11 7 12 5 14 2 12v1906l-2 13-5 14-6 11-8 10-10 9-14 8-18 6-5 1h-1457l-20-6-13-7-13-11-8-10-8-15-4-14-1-7v-62h-28l-20-2-18-6-15-8-10-8-10-10-10-14-7-16-4-14-1-9v-16l3-17 5-14 8-14 9-11 9-9 13-9 15-7 16-4 7-1 37-1v-128l-29-1-18-2-17-5-18-10-15-13-10-13-8-15-5-16-2-11v-18l3-16 5-15 8-14 9-11 8-8 14-10 15-7 15-4 10-1 36-1v-129h-32l-16-2-16-5-16-8-10-8-6-5-9-11-8-13-6-14-3-12-1-8v-17l3-16 4-12 9-17 11-13 10-9 14-9 11-5 16-4 9-1 35-1 1-129h-33l-16-2-18-6-16-9-11-10-5-5-7-8-9-16-5-14-3-16v-17l3-16 4-12 9-17 12-14 10-9 17-10 18-6 15-2 34-1 1-129h-32l-17-2-18-6-13-7-10-8-7-6-11-14-8-15-5-15-2-12v-18l3-16 5-14 8-15 9-11 12-11 11-7 12-6 13-4 16-2 33-1v-128l-34-1-14-2-16-5-17-9-14-12-11-13-9-17-5-15-2-12v-18l3-16 4-12 8-15 11-14 10-9 14-9 13-6 17-4 11-1 31-1 1-63 3-14 5-12 7-11 9-10 8-7 14-8z" fill="#E08B37"></path><path transform="translate(354)" d="m0 0h1464l18 6 13 7 10 8 10 11 7 12 5 14 2 12v1906l-2 13-5 14-6 11-8 10-10 9-14 8-18 6-5 1h-1457l-20-6-13-7-13-11-8-10-8-15-4-14-1-7v-62h-28l-20-2-18-6-15-8-10-8-10-10-10-14-7-16-4-14-1-9v-16l3-17 5-14 8-14 9-11 9-9 13-9 15-7 16-4 7-1 37-1v-128l-29-1-18-2-17-5-18-10-15-13-10-13-8-15-5-16-2-11v-18l3-16 5-15 8-14 9-11 8-8 14-10 15-7 15-4 10-1 36-1v-129h-32l-16-2-16-5-16-8-10-8-6-5-9-11-8-13-6-14-3-12-1-8v-17l3-16 4-12 9-17 11-13 10-9 14-9 11-5 16-4 9-1 35-1 1-129h-33l-16-2-18-6-16-9-11-10-5-5-7-8-9-16-5-14-3-16v-17l3-16 4-12 9-17 12-14 10-9 17-10 18-6 15-2 34-1 1-129h-32l-17-2-18-6-13-7-10-8-7-6-11-14-8-15-5-15-2-12v-18l3-16 5-14 8-15 9-11 12-11 11-7 12-6 13-4 16-2 33-1v-128l-34-1-14-2-16-5-17-9-14-12-11-13-9-17-5-15-2-12v-18l3-16 4-12 8-15 11-14 10-9 14-9 13-6 17-4 11-1 31-1 1-63 3-14 5-12 7-11 9-10 8-7 14-8zm10 61-11 9-1 2v1899l2 7 5 6 7 3h1421l25-1 5-5 4-5 1-11v-1890l-3-7-8-6-69-1z" fill="#010101"></path><path transform="translate(1075,478)" d="m0 0h26l28 2 29 4 27 6 24 7 28 10 28 13 17 9 20 12 17 12 17 13 10 9 11 9 20 20 7 8 11 13 13 17 16 24 12 21 8 15 14 33 10 31 7 30 4 23 3 25v4l-597 1-11 2-8 5-7 8-3 8v14l6 12 7 6 11 4 111 1h567l1 1v34l-3 1h-940l-1-1v-32l1-3 131-1 10-3 8-6 6-10 1-3v-14l-4-9-7-8-8-4-16-2h-39l-6-1 1-15 4-29 7-32 11-35 11-26 8-17 13-23 12-19 10-14 8-10 11-14 12-13 21-21 11-9 13-11 17-12 13-9 24-14 16-8 19-9 30-11 24-7 27-6 28-4z" fill="#F4F4F3"></path><path transform="translate(1052,298)" d="m0 0h67l16 2 14 5 11 7 8 7 9 14 5 12 3 13v12l-5 46-2 10 11 2 29 8 30 10 26 11 23 11 22 12 22 14 14 10 13 10 14 11 15 14 8 7 16 16 7 8 9 10 11 14 14 19 15 23 12 21 9 17 12 27 12 32 8 28 7 33 5 37 1 17h31l16 4 8 4 10 9 6 9 4 11 2 11v65l-4 15-7 12-7 7-11 7-11 3-7 1h-972l-15-3-10-5-9-7-7-10-4-11-2-15v-58l2-13 5-13 8-10 10-7 9-4 11-2 31-1 6-46 6-31 8-30 7-21 10-25 10-22 12-22 9-16 8-12 11-16 10-13 13-16 9-10 15-16 13-13 8-7 10-9 30-23 23-15 19-11 23-12 27-12 28-10 24-7 23-6 2-1v-9l-5-47v-11l3-14 5-12 9-13 10-9 12-7 14-4zm23 180-32 2-34 5-36 9-34 12-24 11-16 8-26 15-18 13-16 12-15 13-10 9-22 22-11 14-10 12-12 17-14 22-17 32-13 31-9 28-7 30-3 15-4 31v7l11 1h34l16 2 8 4 8 9 3 8v14l-5 10-5 6-10 5-5 1-131 1-1 3v32l1 1h940l3-1v-34l-1-1h-567l-111-1-11-4-8-7-5-11v-14l4-9 7-8 7-4 11-2 597-1-2-20-4-27-7-31-8-26-8-21-11-25-12-22-11-18-14-20-12-15-9-11-16-17-13-13-11-9-10-9-19-14-18-12-26-15-27-13-26-10-22-7-28-7-30-5-20-2-17-1z" fill="#010101"></path><path transform="translate(585,1224)" d="m0 0h1e3l12 2 10 5 7 8 4 10v12l-4 10-7 8-6 4-6 2-7 1h-1e3l-13-2-8-5-8-9-3-8v-14l3-8 9-10 7-4z" fill="#010101"></path><path transform="translate(582,1688)" d="m0 0h694l11 2 9 5 6 7 4 8 1 4v10l-5 12-4 5-9 6-7 2-32 1h-661l-14-2-10-6-6-7-4-10v-13l4-10 6-7 6-4z" fill="#010101"></path><path transform="translate(610,1354)" d="m0 0h12l10 3 8 6 6 7 10 16 7 14 13 23 13 24 5 9v2l3-3 12-22 13-23 14-26 11-17 7-7 10-5 5-1h12l10 4 6 7 3 9v229l-3 6-7 6-5 2-11 1-12-3-6-4-3-5-1-155-14 25-15 27-10 17-4 6h-2v2l-8 4h-9l-6-4-6-7-13-25-12-22-12-23-1-3h-2l1 4v148l-3 9-7 6-5 2-10 1-11-2-8-5-3-4-1-4v-226l2-10 6-8 7-4z" fill="#010101"></path><path transform="translate(1130,1354)" d="m0 0h15l11 4 8 7 8 13 24 46 15 29 17 33 13 24v-142l4-8 8-5 3-1h16l10 4 6 7 1 4v232l-2 6-6 7-8 3h-13l-11-3-7-5-6-9-18-34-13-24-12-23-12-22-15-28-4-8-1 142-2 5-4 5-9 4h-17l-9-4-5-5-1-2v-240l3-5 5-4z" fill="#010101"></path><path transform="translate(1385,1354)" d="m0 0h16l9 3 7 8 1 3 1 176 3 12 5 10 8 6 10 4 5 1h13l12-3 9-6 6-8 4-10 1-7 1-56v-120l3-5 5-5 7-3h16l10 4 6 7 1 4v168l-2 21-5 17-8 15-14 14-10 6-16 6-15 3h-34l-19-4-16-7-11-8-9-10-7-12-5-16-2-11-1-30v-127l1-30 5-6z" fill="#010101"></path><path transform="translate(897,1354)" d="m0 0h137l6 3 4 5 3 11-2 12-4 6-5 4-4 1-101 1-1 70h55l7 2 5 6 3 10-2 9-3 5-4 4-12 2h-49l1 70 104 1 6 4 5 9 1 11-4 11-5 5-3 1-11 1h-118l-13-2-6-4-3-3-1-3v-241l3-5 7-5z" fill="#010101"></path><path transform="translate(1418,1688)" d="m0 0h171l13 3 8 5v2h2l6 10 1 4v13l-4 9-5 7-11 7-5 1-34 1h-139l-13-2-10-6-6-7-4-10v-13l4-9 5-7 10-6z" fill="#010101"></path><path transform="translate(1055,359)" d="m0 0h63l5 1v16l-4 40-1 2h-62l-2-11-4-40 1-7z" fill="#F4F3F1"></path><path transform="translate(265,1149)" d="m0 0h25l1 1v66l-1 1h-31l-13-4-8-6-7-11-2-6v-12l3-9 5-8 8-7 10-4z" fill="#F4F1EE"></path><path transform="translate(263,1468)" d="m0 0h26l2 1v66l-1 1h-30l-12-3-8-6-6-7-4-8-1-3v-12l3-10 7-9 8-6 8-3z" fill="#F4F1ED"></path><path transform="translate(284,1787)" d="m0 0 7 1v66l-1 1h-31l-9-2-8-5-5-5-6-9-2-6v-13l4-10 4-6 8-7 10-4z" fill="#F4F2EF"></path><path transform="translate(256,193)" d="m0 0h35v66l-1 1h-33l-10-3-9-7-6-9-3-8v-12l4-11 7-9 10-6z" fill="#F4F2EF"></path><path transform="translate(257,831)" d="m0 0h34v66l-1 1h-33l-10-3-10-8-6-10-2-6v-13l5-12 7-8 9-5z" fill="#F4F2EF"></path><path transform="translate(257,512)" d="m0 0h33l1 1v65l-1 1h-33l-9-3-9-6-7-10-3-8v-12l4-11 7-9 10-6z" fill="#F4F2EF"></path></svg>