<svg xmlns="http://www.w3.org/2000/svg" viewBox="0 0 2048 2048" width="512" height="512"><path transform="translate(1e3 54)" d="m0 0h48l28 2 34 4 30 5 34 8 30 9 31 11 28 12 29 14 23 13 18 11 15 10 17 12 14 11 6 9 3 10-2 12-3 7 1 5 8 7 10 9 28 28 7 8 4-1 10-4h12l9 4 7 5 13 17 12 17 11 17 9 15 13 23 13 26 12 28 10 27 8 25 8 31 6 29 5 34 3 31 1 28v15l-1 33-4 40-6 36-7 31-9 31-11 32-10 24-13 28-13 25-12 20-11 17-11 16-12 16-10 13-13 15-7 8-9 10-27 27-8 7-10 9-14 11-8 6 1 5 8 16 11 24 14 38 8 27 35 4 13 3 9 6 6 7 6 14 8 26 1 7 5-3 67-67 10-5 5-1h8l11 4 10 9 10 10 9 11 11 14 11 16 11 18 10 18 1 3 5-1 21-13 17-9 20-9 30-11 30-8 33-6 25-3 27-1 11 2 8 5 5 5 7 10 12 23 11 26 12 36 6 26 4 25 2 20v41l-4 33-6 27-6 20-1 2h42l15 3 14 7 10 8 9 10 8 15 4 13v84l-6 37-6 26-6 20-10 26-14 29-12 20-11 16-10 13-11 13-12 13-15 15-11 9-12 10-20 14-15 9-24 13-25 11-27 9-24 6-29 5-20 2-20 1h-1370l-31-2-22-3-24-5-27-8-24-9-31-15-25-15-15-11-14-11-11-10-8-7-16-16-7-8-10-12-14-19-12-19-12-22-11-25-9-25-8-31-5-28-2-14v-88l7-18 8-12 10-10 11-7 12-5 10-2h60l-10-25-10-31-7-31-3-18v-8l4-11 6-7 10-6 7-1v-47l3-32-13-7-7-8-4-9-1-6 3-17 8-31 12-36 11-28 13-28 12-21 7-7 10-5 7-1h22l30 2 32 4 36 7 36 10 28 10 25 11 19 9 24 14 17 11 14 10 14 11 11-6 24-13 24-11 24-9 25-8 30-7 23-4 31-3 24-1h22l4-6 5-13 1-5-16-10-17-12-19-14-11-9-13-11-14-12-34-34-7-8-12-14-13-16-14-19-20-30-13-22-12-23-8-16-14-32-12-33-10-35-8-35-6-37-3-31-1-15v-54l3-37 5-36 7-34 7-27 10-31 10-26 10-23 12-25 13-24 11-18 14-21 12-17 11-14 9-11 12-14 11-12 8-8 1-2h2l2-4h2l2-4 8-7 9-9 11-9 10-9 14-11 19-14 27-18 20-12 18-10 17-9 34-15 27-10 31-10 40-10 34-6 33-4z" fill="#010001"></path><path transform="translate(993,114)" d="m0 0h60l36 3 32 5 36 8 27 8 26 9 29 12 34 17 22 13 19 12 18 13 13 9 9 3h9l12-4 6-5 2-2 2 4 8 7 10 9 28 28 7 8 2 2-7 8-4 11v9l4 10 8 11 13 18 13 20 9 15 10 18 11 22 14 34 8 23 8 27 6 24 5 27 4 29 2 27v55l-3 36-6 37-6 28-12 40-10 27-12 27-11 22-11 20-12 19-11 16-14 19-14 17-9 11-14 15-25 25-11 9-14 12-20 15-47 5-31 5-31 7-30 9-28 10-25 11-24 12-24 14-4-1-19-19-8-7-13-11-16-12-16-11-19-12-21-12-22-11-31-13-36-12-36-9-24-4h-7l-9 3-8 6-9 10-13 18-9 13-10 16-8 14-5-1-11-7-16-11-13-10-16-13-14-12-12-11-23-23-9-11-10-11-13-17-10-13-12-18-16-26-18-35-12-27-13-36-8-28-6-25-6-35-3-27-1-14v-64l2-22 4-29 6-31 9-34 12-35 12-29 13-27 13-23 12-19 11-16 8-11 12-16 13-15 7-8 9-10 23-23 8-7 10-9 28-22 19-13 15-10 24-14 29-15 28-12 24-9 29-9 28-7 33-6 23-3z" fill="#8BD5FA"></path><path transform="translate(74,1596)" d="m0 0h1524l386 1 4 3v66l-2 20-4 24-6 23-4 13-2 2-499 1-10 5-7 8-3 7-1 5v7l3 10 7 9 9 5 12 2h456l2 1-2 5-10 13-12 14-11 12h-2v2l-8 7-10 9-13 10-15 10-21 12-25 12-30 10-27 6-20 3-14 1h-1394l-26-3-28-6-27-9-26-11-20-11-21-14-14-11-12-11-8-7-15-16-11-14-9-11v-2l21-1h1205l15-2 10-6 6-8 3-9v-9l-4-11-7-8-8-4-4-1-1266-1-3-2-8-27-5-25-3-24-1-26v-38l2-7 2-2z" fill="#DABBF0"></path><path transform="translate(1006,171)" d="m0 0h24l14 5 11 6 14 10 13 12 11 14 8 13 7 16 5 16 2 10 1 10v21l-5 31-7 37-4 23v11l3 14 5 12 7 10 8 8 13 8 13 4 9 1 141 1 14 3 13 5 12 7 11 9 8 9 8 13 5 11 4 16 1 15-4 24-8 18-2 4v2l4 2 7 8 8 13 5 12 3 12 1 7v15l-2 14-5 15-8 14-10 12-3 3 7 15 5 16 1 8v19l-3 16-8 18-8 11-3 4h-2l-2 4-13 10-5 3 4 16 1 8v13l-3 17-5 13-8 12-11 12-8 6-10 6-18 6-6 1-221 1h-82l-37-1-26-3-24-5-20-7-18-8-3-2-4 1-5 6-14 10-12 5-12 3-12 1h-47l-18-2-14-5-11-7-10-9-9-12-5-11-3-13v-104l5-10 9-8 6-3 5-1h11l9 4 8 7 6 12 1 96 4 4 4 1h54l3-1 2-4 1-4v-360l-2-5-3-2h-57l-4 2-1 2-1 9-1 136-5 10-4 5-10 6-6 2-12-1-10-5-6-5-5-9-1-4v-149l3-14 7-14 7-9 8-8 14-9 15-5 6-1h69l12 3 16 8 9 7 9 10 2 3 4-1 16-16 8-10 12-17 13-22 9-21 10-30 12-39 13-40 15-48 12-39 7-14 9-11 12-9 10-5z" fill="#010001"></path><path transform="translate(1018,230)" d="m0 0 9 5 10 9 7 8 6 10 4 10 2 9 1 11-2 20-12 65-2 15v17l3 20 5 16 8 17 8 12 8 10 8 8 13 10 18 10 16 6 14 3 8 1 25 1 122 1 9 6 6 7 3 7v12l-5 9-4 5-8 5-4 1-84 1-10 2-8 5-6 7-3 7-1 10 3 11 4 6 7 6 6 3 6 1 101 1 10 5 7 7 4 11-1 11-4 8-9 8-8 3-101 1-10 3-10 9-5 12v9l4 11 7 8 10 5 10 1h70l13 1 9 5 7 8 3 7v11l-4 10-7 7-8 4-8 1h-62l-23 1-10 5-7 8-4 12v7l3 10 7 9 12 6 55 1 8 4 5 5 4 9-1 9-6 9-10 5h-308l-34-2-18-3-21-6-15-8-7-6-6-10-2-6-1-94v-155l1-49 14-10 10-8 16-15 12-12 5-7h2l2-4 12-16 8-13 11-19 8-17 8-21 15-47 16-51 19-60 11-32z" fill="#DCA36D"></path><path transform="translate(129,1807)" d="m0 0h293l819 1v1l-815 1-187 2-22 1 1 4 5 5 4 1 7 6 1 4 5 1 1 2 17 8 7 5v2l6 2 9 5 12 6 10 3 17 5 15 3 25 4 7 1 34 1 76 1 1177 1h95l105-1 2 4-15 9-6 5-1 3-23 11-30 10-27 6-20 3-14 1h-1394l-26-3-28-6-27-9-26-11-20-11-21-14-14-11-12-11-8-7-15-16-11-14-9-11v-2z" fill="#C4AAF1"></path><path transform="translate(675,1213)" d="m0 0h32l33 3 25 4 25 6 23 7 27 11 30 15 21 13 13 9 13 10 13 11 8 7 20 20 7 8 10 12 14 19 13 21 13 24 11 25 10 30 7 28 5 27 1 13-1 1h-68l-3-12-4-21-6-21-7-19-9-21-11-20-8-12-9-13-10-12-9-11-18-18-14-11-13-10-15-10-16-9-25-12-25-9-23-6-23-4-24-2h-32l-21 2-23 4-24 6-20 7-21 9-20 11-18 12-15 11-10 9-8 7-15 15-7 8-11 14-7 10-10 15-12 22-11 27-7 22-5 23-3 17-1 2h-69l-1-4 2-8 3-21 7-30 10-30 9-21 8-17 14-24 11-17 10-13 9-11 11-13 21-21 11-9 10-9 18-13 24-15 24-13 25-11 36-12 27-6 18-3z" fill="#E07E85"></path><path transform="translate(196,1176)" d="m0 0h9l37 4 28 5 26 6 29 9 25 10 24 11 21 12 14 9 11 8 3 4-11 10-8 7-21 21-9 11-13 16-14 20-12 19-12 22-12 25-9 23-9 27-7 28-6 36-2 15-2 3h-90l-4-5-11-23-10-27-7-24-5-23-3-16-6-10-6-5-9-4-9-1-1-1v-46l3-33 14-2 9-4 5-4 5-10 11-42 12-36 13-30 7-14z" fill="#BDEB81"></path><path transform="translate(1377,1263)" d="m0 0h30l23 1 5 1 7 24 5 25 1 8-7 8-60 60-5 6-4 4h-2v2l-8 7-12 12-7 8-3 1v2h-2v2l-5 4-1 2h-2v2h-2l-2 4-26 26-8 7-8 8-7 8-17 17-7 6-5 6-8 7-4 5-2 1h-124l-1-1v-23l4-31 5-24 8-26 10-23 9-17 9-14 12-16 12-14 13-13 8-7 13-10 18-12 14-8 16-8 19-8 18-6 24-6 30-5z" fill="#BDEB81"></path><path transform="translate(659,1345)" d="m0 0h4l1 9v50l2 8 4 7 8 7 9 4h12l14-7 6-8 3-7 1-11 1-52 9 1 25 6 20 7 13 6 16 8 24 16 1 4-31 31-5 10v15l3 8 7 8 9 5 4 1h11l9-4 9-7 17-17 6-5 3-4h2l10 15 10 17 8 17 11 33 4 16-1 5h-450l1-10 7-26 9-24 11-21 9-14 7-10 4 1 12 12v2l4 2 11 12 8 6 9 4h12l9-4 8-7 5-8 1-4v-13l-5-10-9-10-25-25v-2l10-6 10-7 16-9 21-9 18-6 22-5z" fill="#DC6670"></path><path transform="translate(1864,1296)" d="m0 0 4 1 9 17 10 26 7 23 5 23 3 21 1 12v35l-4 28-6 24-8 22-5 8-1 1h-176l1-8 3-14 4-31 1-13v-33l-2-24-4-27-6-25v-5l12-9 18-11 21-11 24-10 25-8 30-7z" fill="#BDEB81"></path><path transform="translate(1317,1116)" d="m0 0 4 1 5 8 13 27 8 20 9 26 1 5-3 2-39 6-28 6-36 12-25 11-19 10-16 10-14 10-14 11-12 11-8 7-15 16-10 13-8 10-11 17-6 9-6 11-12 25-3-3-11-22-16-27-17-25-11-14-8-10v-3h2l2-6 8-13 12-17 10-13 11-12 7-8 8-8 11-9 10-9 19-14 21-13 26-14 24-11 24-9 25-8 33-8 29-5z" fill="#9EDA7F"></path><path transform="translate(725,524)" d="m0 0h57l5 4 1 4v360l-2 5-5 5h-54l-7-3-2-3-1-96-6-12-8-7-8-3-8-1 1-80 13-4 8-5 7-11 1-3 1-136 1-9 3-4z" fill="#7C727D"></path><path transform="translate(833,1056)" d="m0 0 18 4 24 7 26 9 23 10 25 12 18 10 18 12 14 10 10 8 14 12 5 4v2l4 2 6 7-2 4-8 8-8 7-11 12-9 10-13 17-10 13-7 11-4 6-4-1-17-13-18-13-17-11-21-12-24-12-19-8-22-8-27-8-22-5-1-2 11-24 8-16 9-17 12-19 7-11z" fill="#87C67C"></path><path transform="translate(1586,1268)" d="m0 0 4 2 11 15 11 17 10 18 7 15 8 21 6 19 7 32 3 26v40l-3 27-6 27-3 9-1 1h-107l1-5 7-18 6-23 3-22v-33l-3-22-5-19-7-19-8-16-9-15-2-2 1-5 64-64z" fill="#FECE5E"></path><path transform="translate(387,1229)" d="m0 0 8 4 14 9 11 8 3 4-11 10-8 7-21 21-9 11-13 16-14 20-12 19-12 22-12 25-9 23-9 27-7 28-6 36-2 15-2 3h-90l-4-5-11-23-10-27-7-24-5-23-3-16-6-10-6-5-9-4-9-1-1-1v-46l3-33 14-1 3 10 4 9 9 21 10 21 9 17 8 14 10 14 6 8 8 9v2l3 1 7 9 7 8 3 2v2l4 2 7 4 10 1h4l3-10 11-37 8-21 13-30 12-25h2l2-5 3-6 9-15 6-9 2-1 2-5 2-3h2l2-5 15-20 2-3h2l2-4 4-5 4-4h2l2-4 23-23 5-4h2z" fill="#9ED97F"></path><path transform="translate(1337,1164)" d="m0 0h5l2 2 2 3 10 29 1 5-3 2-39 6-28 6-36 12-25 11-19 10-16 10-14 10-14 11-12 11-8 7-15 16-10 13-8 10-11 17-6 9-6 11-12 25-3-3-11-22-16-27-17-25-11-14-8-10v-3h2l2-6 8-13 12-17 5-7 2 2 4-6 5-4 1 3-3 2v5l-3 3-1 3h-2l-1 10 2 2 1 4 7 4 7 9 4 6 6 6 5 1 12-4 8-9h2l2-4h2v-2h2v-2h2v-2h2v-2h2v-2l8-7 6-6h2l2-4 8-7 12-10 13-10 12-9 11-7 11-6 16-8 13-5 10-5 19-7 22-7 24-6 36-6z" fill="#87C57C"></path><path transform="translate(74,1596)" d="m0 0h1524l386 1v1l-63 1-455 1h-1353l-3 1 2 11 2 21 6 31 6 18 7 18 5 13 8 15 8 12 6 2 13 1 2 2 4 1 1163 1v1h-1263l-3-2-8-27-5-25-3-24-1-26v-38l2-7 2-2z" fill="#B49DD7"></path><path transform="translate(1470,1384)" d="m0 0 4 1 8 17 6 18 3 14 1 10v18l-2 16-6 21-11 23-11 15h-142l2-4 3-3h2l2-4 139-139z" fill="#FDDC74"></path><path transform="translate(1733,1335)" d="m0 0 2 1-1 2h2l4 9 11 52 2 17 1 52-1 38-2 22-2 6-4-1v2h48l-4-4v-1l11-1 2-2 11-3 9-2 20-8 18-8 16-8 9-5 2-3h5l1 7h2l-3 11-5 15-6 12-2 2h-176l1-8 3-14 4-31 1-13v-33l-2-24-4-27-6-25v-5l12-9 18-11z" fill="#9ED87F"></path><path transform="translate(491,1276)" d="m0 0 2 1v1l3-2 4 1-6 8-8 8h-2l-2 4-3 1-1 3-6 5-5 5-6 7h-2v3l-4 1v3l-4 1-1 4-2 1-4 7-4 1 1 3h-2l-2 4-3 3-3 8h-2l-1 4-3 1-3 10-2 2-1 4h-3v5l-4 7h-2l-3 9-6 12-3 7h-2l-1 7-5 11-3 7v6l-3 1v8l-2 6-2 7-1 8h-1l-4 23-2 5-1 9-1 7-1 11 1 1 36 1v1h-68l-1-4 2-8 3-21 7-30 10-30 9-21 8-17 14-24 11-17 10-13 9-11 11-13 21-21 11-9 10-9z" fill="#DC6670"></path><path transform="translate(1164,1369)" d="m0 0 1 3v3h-2v5l-5 10-2 5h-2l-2 12-4 16-3 16-2 16-3 16-1 31-1 17 1 6-2 11h97v1h-124l-1-1v-23l4-31 5-24 8-26 10-23 9-17 9-14 4-4 1 1z" fill="#9DD77F"></path><path transform="translate(1469,1395)" d="m0 0 7 1 4 1 2 7-3 3v6l-10 10-6 1v2l-5 5-5 2-3 5-4 1h-3l-4 4-5 10h-2l-2 4-2 5h-2l-2 4-4 5-5 4h-2l-2 4-5 5-11 10-8 7-3 1-2 4-7 6-9 13-3 3-8 3-14 2-10-1-2-1 1-2 6-5 5-3h2v-2l11-6 5-3 6-7 8-7 7-7 7-5 5-7h2l2-4h2l2-4 14-13 8-2 1-5 5-6h2v-2l3-2 5-1 3-7 5-2 1-3h3l4-10h2l2-5 5-8h2l1-5z" fill="#FECE5E"></path><path transform="translate(1471,1385)" d="m0 0h3l4 8v5l-9-2-2 4h-2v3h-2l-2 5-5 8h-2l-1 5-3 5-3 1-7 7-2 5-8 2v2l-5 5-3 6-9 4-14 13-5 6-10 10-12 11-5 5h-2l-2 4-4 4-13 8h-3v2l-8 5h-2l-2 4-2-2 140-140h2z" fill="#FEDF74"></path><path transform="translate(1474,1807)" d="m0 0h463l-2 2-123 1h-53l-281-1z" fill="#A793C2"></path><path transform="translate(1548,1485)" d="m0 0 3 2 1 2v9l-3 13-4 9-4 1 1 14 93 1 2-5 2-10 4-8 2-15 3-3h2l-1 9-5 23-3 9-1 1h-107l1-5 7-18 6-23z" fill="#ECC070"></path><path transform="translate(830,1242)" d="m0 0 8 1 32 16 21 13 13 9 13 10 13 11 6 5v3l-4-2-10-9-2-1v-2l-5-2-11-8v-2l-5-2-12-9-7-4-10-6-7-4-15-8-18-8z" fill="#D29571"></path><path transform="translate(1548,1485)" d="m0 0 3 2 1 2v9l-3 13-4 9-4 1 1 14 3 1h-12l3-9 7-20 4-16z" fill="#F5CF73"></path><path transform="translate(1530,1362)" d="m0 0 3 2v5h2v2h3l2 7 6 19-1 5-2-4-6-17-7-15-1-3z" fill="#EDC572"></path><path transform="translate(780,1361)" d="m0 0 5 1 16 8 14 8v3l-11-6-15-8-7-3-2-1z" fill="#D87880"></path><path transform="translate(924,1087)" d="m0 0 9 3 24 12 6 4v2l-5-2-19-10-15-7z" fill="#93C17E"></path><path transform="translate(1540,1521)" d="m0 0h1l1 14 3 1h-12l3-9 2-5z" fill="#F9D573"></path><path transform="translate(890,1074)" d="m0 0h6l26 11 1 4-5-2-13-6-7-2v-2l-8-2z" fill="#95C57F"></path><path transform="translate(830,1242)" d="m0 0 8 1 24 12 1 3-5-2-25-12z" fill="#DD9171"></path><path transform="translate(862,1256)" d="m0 0 6 2 20 12-1 2-4-1-11-7-9-5z" fill="#D09073"></path><path transform="translate(879,1442)" d="m0 0 4 2 12 20-1 4-15-25z" fill="#D7767E"></path><path transform="translate(920,1296)" d="m0 0 4 1 11 9 1 4-4-2-10-9-2-1z" fill="#D49271"></path><path transform="translate(1884,1523)" d="m0 0h1l-1 7-4 6-5-1 5-6z" fill="#AED980"></path><path transform="translate(241,1912)" d="m0 0 9 3 8 3v2l-9-2-10-4z" fill="#BEA5D1"></path><path transform="translate(1836,1896)" d="m0 0m-1 1m-1 1m-1 1m-3 1h3v3l-13 6v-3l6-2v-2z" fill="#C8ADDE"></path><path transform="translate(1650,1467)" d="m0 0h1v19l-2 4-1-14z" fill="#FFDD72"></path><path transform="translate(209,1897)" d="m0 0 12 6 1 3-6-2-9-5z" fill="#B9A1C8"></path><path transform="translate(1540,1385)" d="m0 0h2l4 12-1 5-2-4-3-9z" fill="#F4C36F"></path><path transform="translate(1707,1522)" d="m0 0h1v10l2 3-1 1h-5l2-10z" fill="#BEEC82"></path><path transform="translate(181,1526)" d="m0 0 2 1v2h2l2 2v4l3 1h-5l-4-6z" fill="#AEDA80"></path><path transform="translate(949,1100)" d="m0 0 6 1 8 5v2l-5-2-9-5z" fill="#94C07F"></path><path transform="translate(222,1904)" d="m0 0 6 2 6 3v2l-9-3-3-2z" fill="#C5ABD9"></path><path transform="translate(1047,1245)" d="m0 0v3l-3 1-2 4-2 3-2-1 4-7z" fill="#A2D180"></path><path transform="translate(830,1242)" d="m0 0 8 1 8 4-4 1-12-5z" fill="#D38D73"></path><path transform="translate(340,1528)" d="m0 0 4 4h-2v2l2 1h-6v-6z" fill="#DC7B83"></path><path transform="translate(1649,1427)" d="m0 0 2 1v12l-2-3-1-2v-6z" fill="#FFE075"></path><path transform="translate(936,1093)" d="m0 0 5 1 10 5v1h-5l-10-6z" fill="#91BC7E"></path><path transform="translate(1035,1258)" d="m0 0h2l-2 5h-2l-2 5-2 1 1-5z" fill="#9DCC7F"></path><path transform="translate(913,1083)" d="m0 0 7 1 3 2v3l-10-4z" fill="#9DCF7F"></path><path transform="translate(1444,1304)" d="m0 0 2 4 1 12-3-3-1-8z" fill="#8CB47E"></path><path transform="translate(1160,1158)" d="m0 0h3v2l-8 4h-5l4-3z" fill="#A3C880"></path></svg>