<svg xmlns="http://www.w3.org/2000/svg" viewBox="0 0 1600 1600" width="512" height="512"><path transform="translate(725,77)" d="m0 0h29l22 4 21 7 17 9 13 9 15 13 10 11 8 11 10 17 8 21 4 17 2 15v25l-3 18-5 17-7 17-9 15-10 13-8 9-1 151h69l21 1 20 3 23 7 16 7 17 10 13 11 11 9 11 12 13 17 9 16 8 19 6 21 2 12 1 11v516h44l30 2 5-27 6-20-1-5-8-16-3-11-1-8v-10l3-16 5-12 6-10 10-12 16-11 13-5 9-2h24l12 3 16 8 3 2 5-1 21-6 20-3h35l20 3 21 6 15 6 16 8 17 11 14 12 12 11 18 18 9 11 7 8 10 15 10 19 8 21 5 21 2 15v34l-4 24-6 20v6l8 16 4 16v17l-3 15-2 5h10l14 2 12 5 11 7 8 8 7 11 5 13 1 4v98l-4 12-7 13-10 11-11 7-15 5-6 1h-1496l-12-3-14-7-12-11-8-13-5-14v-100l6-16 7-11 10-10 12-7 14-4 13-1h88l-5-5-14-12-17-17-11-14-10-13-14-24-11-25-8-26-5-26-2-26v-467l3-12 5-9 9-10 11-7 10-3 77-1v-175l-12-8-12-11-10-13-7-15-4-14-1-6v-19l3-16 5-13 8-14 14-15 11-8 16-8 15-4 9-1h34l15 2 16 6 14 8 13 11 10 13 8 16 4 13 2 21v417l-1 14-5 10-8 6-3 3v45l3 3 6 4 6 8 2 11 1 183 14-14 13-10 14-9 17-9 18-7 1-404 3-21 6-21 8-19 9-16 11-14 11-13 11-10 14-11 13-8 16-8 24-8 16-3 7-1 24-1h66l1-149-8-11-8-9-9-15-8-16-7-23-3-21v-20l3-22 9-27 9-17 9-13 9-10 7-8 14-11 10-7 16-8 12-5 24-6zm12 118-9 3-7 8-2 5v9l4 8 7 6 10 2 10-3 7-8 2-5v-9l-4-8-7-6-8-2zm-417 1121-1 1v9l5 1 4-1-2-4-5-6zm909 0-6 9 1 2h15v-3l-8-8z" fill="#010101"></path><path transform="translate(725,124)" d="m0 0h27l14 3 15 6 11 6 13 10 9 9 10 14 8 17 4 15 1 7v23l-4 17-4 11-10 18-12 13-9 10-3 10-1 117v39l1 35 4 10 6 5 8 3 103 1 20 2 21 6 16 8 10 6 13 11 5 4 9 11 7 10 8 15 7 23 2 15 1 14v452l-1 48h-47l-1-244-4-10-7-6-5-2-8-1-10 3-5 4-5 10-1 245-1 1h-105l-11-9-13-8-17-8-6-2-1-7-1-14-3-20-7-20-10-18-9-11-9-10-14-11-18-10-21-7-22-3h-14l-15 2-19 5-19 9-14 10-12 11-9 11-9 14-6 11h-3l-8-6-7-5-1-3v-405l3-12 6-8 7-5 8-2h355l9 2 10 8 5 10 1 4 1 178 3 7 5 6 8 4h11l10-5 5-8 2-6v-180l-3-16-6-14-9-12-8-8-13-8-13-5-9-2-15-1h-348l-16 2-14 5-11 7-10 9-7 8-8 16-3 11-1 6-1 396-13-1-32-3-3-2v-375l2-24 3-15 6-17 10-18 14-17 10-9 11-8 19-10 19-6 23-3 106-1 9-4 6-9 2-5v-192l-3-8-7-9-9-9-10-14-7-15-5-16-2-19 2-19 6-20 10-18 9-10 5-6 13-10 19-10 15-4zm12 71-9 3-7 8-2 5v9l4 8 7 6 10 2 10-3 7-8 2-5v-9l-4-8-7-6-8-2z" fill="#E19A57"></path><path transform="translate(58,1373)" d="m0 0h1482l6 2 6 5 1 2v85l-8 9h-1489l-5-3-3-4-1-5v-82l6-7z" fill="#D0772A"></path><path transform="translate(47,1382)" d="m0 0h1v44l5-1 1500-1v43l-8 9h-1489l-5-3-3-4-1-5z" fill="#C25C2E"></path><path transform="translate(725,124)" d="m0 0h27l14 3 15 6 11 6 13 10 9 9 10 14 8 17 4 15v3h-12l-16 2-2-1v14l-3 14-5 12-8 11-4 5-11 8-14 7-12 3-11 1-20-2-2 4-3 7-4 21-1 10v15l4 20 7 22 9 16 11 13 7 8 4 5 1 31v93l-1 21-1 2h165l5 1v1h-357l-16 2-14 5-11 7-10 9-7 8-8 16-3 11-1 6-1 396-13-1-32-3-3-2v-375l2-24 3-15 6-17 10-18 14-17 10-9 11-8 19-10 19-6 23-3 106-1 9-4 6-9 2-5v-192l-3-8-7-9-9-9-10-14-7-15-5-16-2-19 2-19 6-20 10-18 9-10 5-6 13-10 19-10 15-4zm12 71-9 3-7 8-2 5v9l4 8 7 6 10 2 10-3 7-8 2-5v-9l-4-8-7-6-8-2z" fill="#F9A85B"></path><path transform="translate(1223,1031)" d="m0 0h7l10 4 9 7 10 6 3 1h7l20-7 16-5 9-2 9-1h20l19 3 17 5 18 8 18 12 11 10 8 7 8 8v2l4 2 9 10 11 14 9 15 8 20 5 22 1 10v17l-3 19-5 17-6 15-2 8 1 8 4 8 7 8 4 8 1 3v11l-5 10-9 8-10 3-10-1-10-6-9-7-10-4-9 1-30 10-13 3-8 1h-20l-19-3-17-5-21-10-12-8-11-9-11-10-7-8-5-5-4-28-7-20-6-12-8-12-9-10-8-8v-19l2-16 6-19 7-19v-9l-5-10-7-9-4-8-1-10 4-11 4-5 9-6z" fill="#F9B336"></path><path transform="translate(824,206)" d="m0 0h10l2 1 1 4v23l-4 17-4 11-10 18-12 13-9 10-3 10-1 117v39l1 35 4 10 6 5 8 3 103 1 20 2 21 6 16 8 10 6 13 11 5 4 9 11 7 10 8 15 7 23 2 15 1 14v452l-1 48h-47l-1-244-4-10-7-6-5-2-11-2 2-1-1-45 8-1 11-6 5-8 2-6v-180l-3-16-6-14-9-12-8-8-13-8-13-5-20-4-165-1 1-33v-83l-1-31-9-10-11-13-9-15-6-16-5-18-2-12v-15l3-21 3-14 5-7h12l10 1 14-2 12-4 14-8 4-4h2l2-4 7-9 6-12 3-10 2-21z" fill="#FDC58B"></path><path transform="translate(175,677)" d="m0 0h96l1 126 3 12 4 6 8 5 14 2 1 1v46l-16 2-9 7-4 9-1 11-1 395-9-5-12-9-14-12-9-9-7-8-10-13-11-18-10-21-9-27-3-16-1-13-1-399z" fill="#E6E6E6"></path><path transform="translate(441,1074)" d="m0 0h13l20 2 27 9 18 10 14 11 12 12 12 17 8 15 7 23 3 21v11l-7 36-8 19-10 16-11 12-11 11-15 10-14 7-17 6-14 3-12 1h-16l-18-2-24-8-15-8-10-7-10-8-12-12-12-17-8-17-5-16-3-15-1-8v-17l4-23 6-18 9-17 10-14 9-10 11-9 10-7 12-7 15-6 14-4z" fill="#E3252C"></path><path transform="translate(869,1195)" d="m0 0 272 1 12 3 16 8 12 11 7 10 7 16 2 14v9l-2 10-5 13-7 11-7 8-11 8-10 5-16 4-290 1 1-4h2l2-5 8-13 7-15 5-15 2-2 91-1 8-4 3-1 2-4 4-10-1-9-6-12-4-2-5-2-6-1-84-1-3-9-6-20z" fill="#9AAD4F"></path><path transform="translate(691,1161)" d="m0 0h62l14 2 15 5 11 6 9 7 7 6 8 10 8 16 4 13 2 13v12l-3 15-5 13-7 12-10 12-11 9-12 7-15 5-13 2h-63l-17-3-12-5-11-6-11-9-8-8-8-13-5-12-4-16v-13l6-29 7-14 12-14 11-9 17-9 15-4z" fill="#259F50"></path><path transform="translate(1223,1031)" d="m0 0h7l10 4 9 7 10 6 3 1h7l20-7h2l2 5v6l-1 7 6 15 2 3v3l2 1 1 5h2l1 7-2 10-7 21-4 31 1 14 2 12 5 14 4 9 5 14 7 15 5 11 7 14 9 10v2h2l5 6 8 7 5 4v2h2l4 5v2l4 2 13 9 7 1v9l-13 3-8 1h-20l-19-3-17-5-21-10-12-8-11-9-11-10-7-8-5-5-4-28-7-20-6-12-8-12-9-10-8-8v-19l2-16 6-19 7-19v-9l-5-10-7-9-4-8-1-10 4-11 4-5 9-6z" fill="#F8A022"></path><path transform="translate(441,1074)" d="m0 0h13l20 2 7 2-4 1h-1l9 4v2l2 1-4 6-5 9-6 5-1 2h-2l-2 6-6 11-7 13-3 6-3 12-4 14-1 14-1 9v16l3 20 4 18 5 14 8 15 5 8v2h2l6 8 5 10v7l-7 6-12 4-1 1h-23l-10-1-8-4h-4l-1-2-4-2-9-6-3-1-1-5-6-2-5-4-5-5-10-6-6-7-5-5 1-8-4-2-4-6-6-7-3-7-3-6-3-7-1-7-2-11-1-2-1-17 3-9 2-11 3-6 2-9 6-9 2-5h2v-5l3-3 3-1 1 5 1 2-4 3 1 4 5-5 6-2v-2l3-1-1-5-5-1-4 1-1-4 3-5 8-7 4-4 3-1 4-6h3v-2l8-7 5-2 1-2 5-3h3l1-3 8-2 5-2-1-3 5-2-10 2-10 3-4-1 20-6z" fill="#CA2529"></path><path transform="translate(203,336)" d="m0 0h35l9 3 11 7 7 8 6 12 1 5v258l-9 1-47-1-1-190-2-10-5-8-16-8-9-6-7-7-6-12-1-6v-13l4-11 8-10 9-7 9-4z" fill="#50B290"></path><path transform="translate(1191,1248)" d="m0 0h2l3 5 1 5v9l-2 10-5 13-7 11-7 8-11 8-10 5-16 4-290 1 1-4h2l2-5 8-13 7-15 5-15 2-2 91-1 8-4 3-1 6-12 1 4-5 9 37 1v-3l5 2 5 3 4 1h88l8-3 5-5 2 1-2 3 13-1 23-6 17-9z" fill="#C5C154"></path><path transform="translate(100,676)" d="m0 0h20l8 1 1 466 3 31 5 21 6 18 10 24 8 15 10 16 12 16 11 12v3l-15-11-10-8-7-7-7-6-7-8-8-9-12-18-12-23-8-21-4-18-3-17-1-15z" fill="#CDD7CD"></path><path transform="translate(738,148)" d="m0 0 17 2 13 5 10 6 10 9 7 8 7 14 3 10 1 7v13l-3 14-5 12-8 11-4 5-11 8-14 7-12 3-11 1-15-2-14-5-11-7-9-8-9-13-5-11-3-14v-15l4-16 7-14 10-12 11-8 12-6 12-3zm-1 47-9 3-7 8-2 5v9l4 8 7 6 10 2 10-3 7-8 2-5v-9l-4-8-7-6-8-2z" fill="#010101"></path><path transform="translate(661,1036)" d="m0 0h13l18 4 16 8 13 11 8 10 8 17 4 17v10l-1 1-45 1-21 2-15 4-13 5-17 9-12 9-4 2-11-25-8-14v-8l4-15 4-9 6-10 11-12 10-7 13-6 11-3z" fill="#DE672E"></path><path transform="translate(175,677)" d="m0 0h96l1 126 3 12 4 6 8 5 14 2 1 1v8l-2 1-6-3-10-3-6-4-5-5-6-9-2-8-1-25-1-51-1-16-2-9-2-13-2-3-7-1h-25l-15 3-9 3-12 1-3 21-1 33-1 308v95l3 16 3 14 9 25 7 13 6 10 6 9 7 9 9 10 7 8 5 4v2l5 2 7 6 6 1 1-8v-343l1-30 3-12 6-8 7-6 5-3 15-2 1 6-16 2-9 7-4 9-1 11-1 395-9-5-12-9-14-12-9-9-7-8-10-13-11-18-10-21-9-27-3-16-1-13-1-399z" fill="#FBFBFB"></path><path transform="translate(832,237)" d="m0 0h3v7l-5 16-9 17-9 11-8 8-6 7-3 10-1 117v39l1 35 4 10 6 5 8 3 103 1 20 2 21 6 16 8 10 6 13 11 5 4 9 11 7 10 8 15 7 23 2 15 1 14v452l-1 48h-47l-1-244-4-10-7-6-5-2-6-1-1-3 6-2 6 1 8 6 8 11 3 12v16l-1 4h-2l-1-2-1 217 1-4 6-1 3 2h15l10-2 2-3 1-17-1-225v-243l-2-25-2-10-5-12-8-16-8-14-11-12-10-9-9-6-4-4-15-7-19-6-8-2-17-1h-27l-9 1-12 1-36 1-15-2-10-5-8-10-3-6-2-31v-138l1-26 5-14 8-8 5-4 2-3h2l2-4 8-14 6-11 4-8 2-9z" fill="#F8C283"></path><path transform="translate(221,337)" d="m0 0h22l11 6 9 8 6 10 3 10v258h-19l-1-1v-189l-19-10-10-9-9-12-5-11-3-12v-17l3-12 8-16z" fill="#93CDCA"></path><path transform="translate(1034,1226)" d="m0 0h81l9 2 8 6 5 10 1 6-2 9-6 8-5 4-6 2h-88l-8-3-5-4-5-9-1-10 4-10 6-7 7-3z" fill="#010101"></path><path transform="translate(693,1042)" d="m0 0 6 1 10 6 11 9 9 11 8 17 4 17v10l-1 1-45 1-21 2h-7l2-1 1-10h-1v-10l5-17 7-15 9-16 4-2h2v-2l-3-1z" fill="#D0772A"></path><path transform="translate(556,618)" d="m0 0h340l3 2-39 2-64 2h-23l-18-1h-40l-15-1-92-1h-33l-18 2-7 4-4 6-3 11-2 10-2 2v-17l2-9 6-7 6-4z" fill="#FAA95C"></path><path transform="translate(537,644)" d="m0 0h1l1 42 1 25v248l-1 71-1 19h-1z" fill="#C6642C"></path><path transform="translate(932,570)" d="m0 0 6 1 12 5 9 3 10 7 3 3 2 8h5l7 8 3 8 3 21-1 4h-3l1 14 1 130-1 30-1 5h-1l-1-180-3-16-6-14-9-12-8-8-13-8-13-5-3-2z" fill="#F9C585"></path><path transform="translate(967,880)" d="m0 0 8 1 8 6 8 11 3 12v16l-1 4h-2l-1-2-1 212-1 8h-1l-1-244-4-10-7-6-5-2-6-1-1-3z" fill="#E2995E"></path><path transform="translate(443,650)" d="m0 0h1l1 31 1 281v62l1 1 23 2v1h-13l-11-1-3-2z" fill="#C35E2D"></path><path transform="translate(938,971)" d="m0 0h1l1 77v99h-7l3-5-1-38 1-112z" fill="#FAA95C"></path><path transform="translate(806,212)" d="m0 0h1v5l3 1 1 14-6 18-6 9-10 5-6 8-5 3-5 4h-3v2l-11 5-11 2h-9l-3-1v-2l6-1-2-2 14-2 12-4 14-8 4-4h2l2-4 7-9 6-12 3-10z" fill="#F9C585"></path><path transform="translate(101,677)" d="m0 0h3l1 3-1 1-1 42-1 353h-1z" fill="#E6E6E6"></path><path transform="translate(782,562)" d="m0 0h42l17 1 3 2-13 3-63 1-8-1 2-3 11-2z" fill="#FFCF8E"></path><path transform="translate(730 1e3)" d="m0 0 11 3 9 7v2l3 1v2l4 2 3 3v2h2l7 11 4 5 6 12 3 8-1 1 2 1 1 7h-2l-1 2-6-16-9-16-9-11-9-10-14-11-4-2z" fill="#F3A157"></path><path transform="translate(684,312)" d="m0 0h1l1 42v128l-1 20h-1l-1-81v-55z" fill="#C7652C"></path><path transform="translate(986,632)" d="m0 0 2 3 1 17 1 130-1 30-1 5h-1z" fill="#C48145"></path><path transform="translate(584,1307)" d="m0 0 3 1 7 11 4 6v2h-30l1-4 7-7 7-8z" fill="#F3B47B"></path><path transform="translate(989,932)" d="m0 0h1l1 14v195l-2 5h-1z" fill="#FFCF8E"></path><path transform="translate(905,618)" d="m0 0h16l7 3 7 6 5 10v31l-2 4-2-6v-10l-1-4v-9l-3-10-2-1v-3l-4-2-7-4-16-3z" fill="#F6A459"></path><path transform="translate(125,677)" d="m0 0h2v275h-1l-1-266-2-7z" fill="#E6E6E6"></path><path transform="translate(789,259)" d="m0 0 1 4-3 3-3 5-6 4-5 4h-3v2l-11 5-11 2h-9l-3-1v-2l6-1-2-2 14-2 12-4 14-8 4-4h2l2-4z" fill="#F7C080"></path><path transform="translate(989,664)" d="m0 0h1l1 10 1 75v24l-1 29-1 8h-1z" fill="#FDC47F"></path><path transform="translate(556,618)" d="m0 0h40l-2 2-31 2-9 2-5 5-3 4-3 11-2 10-2 2v-17l2-9 6-7 6-4z" fill="#F6A55A"></path><path transform="translate(669,1036)" d="m0 0 4 1v2l11 1 2 1-1 3-12 3-6-1-1 2h-4-12l-1-2 3-3 2-3z" fill="#E3252C"></path><path transform="translate(989,813)" d="m0 0h3v10l-5 9-7 6-9 4h-7l-2-1v-3l7-2 10-5 5-8 2-6h2z" fill="#FAC787"></path><path transform="translate(938,730)" d="m0 0h1l1 89-2-3-1-8-1-26v-47h1z" fill="#FBAA5D"></path><path transform="translate(799,1122)" d="m0 0 8 2 16 8 9 6 1 2 4 2 4 5-6 1-11-9-13-8-12-6z" fill="#F3A158"></path><path transform="translate(775,131)" d="m0 0 6 2 11 6 13 10 9 9-1 3-7-3v-2l-3-1-5-5-13-11-11-6z" fill="#F3AC42"></path><path transform="translate(693,1042)" d="m0 0 6 1 10 6 11 9 9 11 7 14v7l-2-3-3-6v-2h-2l-1-6-3-1v-5h-2l-4-5-5-4-5-5-5-4-6-2v-2l-5-2z" fill="#EA9027"></path><path transform="translate(940,817)" d="m0 0 2 2 3 7 5 6 8 4 10 1v1h-8l1 3v30h-1v-29l-12-6-3-2v-2h-2v-3l-3-1-1-9z" fill="#F09F56"></path><path transform="translate(635,1049)" d="m0 0 4 1-2 2-6 3-9 9h-2l-1 3-4 4v2h-2l1 3-4 2-3 3 2-6-1-2h2l1-4 5-4 2-3h2v-2l8-7 5-1v-2z" fill="#E3252D"></path><path transform="translate(503,598)" d="m0 0 2 3-6 10-5 13-1 5-2-2v-5-2l1-8h2v-4h2l2-6 3-1v-2z" fill="#F0A536"></path><path transform="translate(539,1047)" d="m0 0 11 7 1 3 7-1-1 6-3 2-7-6-8-5z" fill="#EE9A51"></path><path transform="translate(176,1281)" d="m0 0 5 1 14 15-1 2-15-11-4-3z" fill="#D7E1D6"></path><path transform="translate(614,1125)" d="m0 0 3 3 9-3 4 1-3 3-6 4-4 1-3-3z" fill="#E4252D"></path><path transform="translate(101,677)" d="m0 0h3l1 3-1 1-1 26-2 1z" fill="#EBEBEB"></path><path transform="translate(48,1450)" d="m0 0h1l2 13 4 8v3l-4-1-3-4z" fill="#DB662E"></path><path transform="translate(725,1068)" d="m0 0 4 1 7 14v7l-2-3-3-6v-2h-2l-1-6-3-1z" fill="#ED9324"></path><path transform="translate(789,1111)" d="m0 0 4 5v4l6 2v2l-5-1-6-2-1-7z" fill="#EE9A52"></path><path transform="translate(470,569)" d="m0 0 2 1-5 8h-2l-2 5-6 11-1-4 8-14z" fill="#EEAB6C"></path><path transform="translate(584,1307)" d="m0 0 3 1 3 5v2l-8-1-5 1 6-7z" fill="#F3B779"></path><path transform="translate(951,886)" d="m0 0 2 1-6 5-6 9-1-3 1-6 6-5z" fill="#F2A057"></path><path transform="translate(1217,1101)" d="m0 0 2 3-2 10-5 8h-2l3-10z" fill="#E89730"></path><path transform="translate(694,991)" d="m0 0 7 1 15 5v3l-21-7z" fill="#E8934E"></path><path transform="translate(646,189)" d="m0 0 3 4-3 8v3h-3l-1 3 1-8z" fill="#E99B40"></path><path transform="translate(824,206)" d="m0 0h6v1l-19 3-2 1-1 6h-1l-1-9z" fill="#FECE8D"></path><path transform="translate(693,1042)" d="m0 0 6 1 9 5-1 2-9-3v-2l-5-2z" fill="#E98E25"></path><path transform="translate(125,677)" d="m0 0h2v20h-1l-1-11-2-7z" fill="#eee"></path><path transform="translate(814,1290)" d="m0 0 1 2-9 11-4 3-2-1 11-11z" fill="#49AF85"></path><path transform="translate(835,212)" d="m0 0 2 4v9l-2 3-1-4v-10z" fill="#FCC989"></path><path transform="translate(575,1319)" d="m0 0h1v6h6v1h-13z" fill="#FECE8D"></path><path transform="translate(761,126)" d="m0 0 11 3 2 2-4 1-12-4z" fill="#EDA03F"></path><path transform="translate(691,265)" d="m0 0 5 1 6 5v2l-4-1-7-6z" fill="#EEA23A"></path><path transform="translate(1213,1035)" d="m0 0 2 1-9 10-1-3 5-5z" fill="#EA962D"></path><path transform="translate(683,509)" d="m0 0 2 2h-2l-2 5h-2l-1 3-3 1 2-4 3-5z" fill="#F5BC7C"></path><path transform="translate(506,538)" d="m0 0 4 1-14 8v-3z" fill="#EEAF71"></path><path transform="translate(709,153)" d="m0 0h2v2l-10 6-4 1 5-5z" fill="#EEAE70"></path><path transform="translate(671,1036)" d="m0 0 9 1 3 3-2 1-8-2v-2z" fill="#D6622E"></path><path transform="translate(780,1065)" d="m0 0h3l1 7h-2l-1 2z" fill="#F09D55"></path><path transform="translate(598,1008)" d="m0 0h2l-1 3-8 6-3-1h2l1-3z" fill="#ED9953"></path><path transform="translate(470,569)" d="m0 0 2 1-5 8h-2l-1 2 1-5z" fill="#F3B676"></path></svg>