<svg xmlns="http://www.w3.org/2000/svg" viewBox="0 0 2048 2048" width="600" height="600"><path transform="translate(543,207)" d="m0 0h979l24 1 24 3 31 8 25 10 19 9 18 11 14 10 11 9 12 11 16 16 9 11 13 18 14 24 8 17 7 18 8 29 3 20 2 20v1067l-4 17-7 12-9 10-9 7-14 6-6 2-8 1-107 1 12 13 10 11 7 8 10 11 9 11 12 13 9 11 13 15 11 13 12 14 9 11 9 10 8 10 12 14 9 11 12 14 9 11 22 26 9 11 14 17 7 8v3h-538l-2-4-5-47-4-48-4-37-1-14-4-11-9-14-11-13-23-23-8-7-15-13-5-4-6-8-7-15-2-9-346 1-5 14-7 13-12 12-11 9-16 15-10 9-7 8-11 13-8 13-3 9-7 70-5 53-3 26-1 1-66 1h-472v-3l13-15 11-14 13-15 9-11 11-13 9-11 11-13 9-11 24-28 9-11 13-15 7-8 9-11 13-15 12-14 12-13 9-11 13-14 7-8 11-12-111-1-14-4-12-6-10-8-9-12-5-10-3-11-1-8v-1057l3-31 5-25 8-26 9-21 12-22 8-12 8-11 11-14 14-15 13-12 14-11 24-16 27-14 24-9 22-6 20-4 11-1z" fill="#F4AD89"></path><path transform="translate(556,237)" d="m0 0h116l14 2 19 5 21 10 14 10 12 11 11 14 7 14 4 16 1 162 2 17 3 16 4 8 6 8 10 8 9 5 25 10 17 5 18 5 33 8 48 9 47 6 11 1h31l21-2 39-5 52-10 44-11 16-5 17-6 12-5 12-8 8-7 7-12 3-12 2-13 1-19 1-154 4-16 9-16 11-13 7-7 17-12 16-8 15-5 15-3 9-1h118l25 2 28 5 20 6 17 6 20 9 19 11 13 9 9 7 11 9 12 11 15 15 13 17 12 18 11 19 11 26 7 21 5 25 4 28v992l-1 20-5 15-5 9-9 10-10 8-11 5-9 2-72 1h-36l-7-7-9-11-12-15-12-16-14-20-9-13-9-15-7-15-1-5v-14l5-13 10-18 9-24 6-32 9-32 10-28 16-41 14-29 14-27 13-26 11-23 12-28 13-34 8-27 3-17 4-17 6-19 15-37 7-20 2-9 2-30 3-17 5-19 10-21 8-16 6-16 3-17 1-10v-21l-4-28-6-28-4-8-4-3-5-1h-7l-11 3 7-40 1-8v-18l-3-15-5-9-8-7-12-3h-13l-8 1 1-11v-20l-2-11-4-10-6-8-10-7-9-3h-10l-12 4-13 9-1-2 3-7 1-8v-19l-4-11-9-13-12-10-13-8-12-5-10-2-11 1-9 4-6 5-6 10-5 10-6 18-6 19-12 36-7 22-10 27-7 18-5 13-5 10-4 4-5 2h-9l-9-4-6-7-3-6-2-10 5-15 6-8 12-11 7-8 8-10 12-19 6-11 8-16 10-24 3-12v-27l-3-12-8-15-12-12-14-9-11-5-14-3h-12l-14 2-13 5-16 8-12 8-13 10-18 18-6 8-10 15-9 20-3 17-2 13-1 37-3 29-5 24-9 30-8 18-8 14-10 19-7 16-7 20-3 16-1 8v17l4 57v60l-3 51-6 53-3 26-8 57-8 45-5 24-5 26-3 25-4 54-4 32-5 27-1 10v15l3 22 12 56 4 27 1 16-1 5-1 17-1 6v38l1 28-3 1h-306l-21-1-1-5 2-26v-30l-3-30v-16l4-28 14-64 1-7v-34l-3-17-3-13-3-24-3-38-2-30-5-33-6-26-8-44-7-48-4-31-4-37-3-24-2-28-2-47v-23l2-42 2-28v-25l-3-19-4-13-8-19-13-26-9-16-8-20-8-27-5-28-2-17-1-32-2-21-3-18-10-22-11-16-12-14-14-13-18-13-16-8-11-5-10-3-7-1h-14l-11 2-13 5-14 9-12 11-8 14-3 9-2 10v18l5 21 11 25 9 17 7 12 6 9 9 12 9 10 13 13 6 10 2 6v10l-4 10-5 6-8 4-3 1h-8l-8-4-7-14-5-12-7-19-11-30-7-21-6-20-6-17-4-13-8-23-8-14-7-7-8-4-14-1-11 3-16 8-13 9-8 8-8 14-3 13v9l3 16 3 6-4-2-10-7-10-4h-17l-10 5-8 7-6 10-3 11v27l1 8h-24l-11 4-6 5-5 10-3 12v22l4 26 3 20-6-1h-16l-5 5-4 9-5 22-4 26v31l3 19 7 21 12 23 5 10 5 17 3 16 4 42 9 25 14 34 8 27 5 28 8 26 10 26 12 29 14 29 11 23 18 35 8 16 8 19 12 31 10 28 9 32 6 31 5 15 8 16 9 19 2 7v12l-4 12-10 18-8 12-24 34-16 20-9 11-8 9-10 1h-22l-78-1-13-4-14-9-10-10-5-8-6-17-1-8-1-199v-669l1-138 4-28 5-24 9-27 12-25 11-19 12-17 8-10 16-17 16-15 17-13 10-7 14-8 19-10 20-8 22-7 32-6z" fill="#272A2B"></path><path transform="translate(1400,392)" d="m0 0h12l14 3 16 8 11 8 11 11 8 15 3 12v27l-4 15-10 23-7 14-7 13-14 21-9 11-5 5-13 12-5 10-3 10 2 10 5 9 4 4 8 3h9l7-2 2-5 4-8 5-13 7-18 11-30 7-21 9-29 3-8 5-16 8-23 7-12 4-5 8-6 12-3 12 1 13 5 12 7 9 7 8 7 9 14 3 9v19l-2 10-2 6 13-9 12-4h10l10 4 9 6 6 7 4 8 2 7 1 8v20l-2 11 8-2h13l12 3 10 9 5 11 2 12v18l-5 32-3 15 10-3h7l7 2 6 8 5 21 5 29 1 9v21l-3 22-4 14-8 18-11 21-5 15-4 18-2 22-1 16-4 16-11 28-11 27-7 25-3 19-7 25-8 22-11 28-12 26-20 41-10 19-8 16-10 21-12 31-9 24-8 24-7 26-5 28-9 24-11 20-4 11v14l3 10 10 19 6 9 14 20 13 18 14 18 11 13 8 9h36l72-1 12-3 6-3 2 1-10 5-7 2-9 1-99 1 7 9 9 10 9 8-1 3 12 13 10 11 7 8 10 11 9 11 12 13 9 11 13 15 11 13 12 14 9 11 9 10 8 10 12 14 9 11 12 14 9 11 22 26 9 11 14 17 7 8v3h-538l-2-4-5-47-4-48-4-37-1-14-4-11-9-14-11-13-23-23-8-7-15-13-5-4-6-8-7-15-2-9-3-1-5-28-4-2 4-1-2-28v-38l1-6 1-17 1-11-4-31-11-53-4-21-1-10v-15l3-22 4-22 3-25 5-64 5-32 6-28 8-43 8-55 3-23 5-47 3-31 2-38v-60l-4-57v-17l3-20 5-16 8-20 8-16 11-20 5-10 6-15 8-28 4-20 3-29 1-37 4-27 9-21 10-16 6-7 7-8 15-15 11-8 17-11 18-8 11-3z" fill="#F4AD89"></path><path transform="translate(543,207)" d="m0 0h979l24 1 24 3 31 8 25 10 19 9 18 11 14 10 11 9 12 11 16 16 9 11 13 18 14 24 8 17 7 18 8 29 3 20 2 20v1067l-4 17-7 12-9 10-9 7-14 6-6 2-8 1h-107v-2l-8-7-8-8-9-12v-1l100-1 13-2 12-5 5-5 10-9 6-8 5-11 3-10 1-20v-992l-4-28-5-25-8-24-10-23-14-24-12-17-8-10-9-10-5-6-8-7-14-12-13-10-17-11-22-12-20-8-25-8-25-5-15-2-17-1h-118l-20 3-17 5-16 8-11 7-11 9-7 7-9 12-7 13-4 16-1 154-1 19-3 19-4 10-7 10-8 7-13 8-20 8-18 5-16 5-33 8-52 10-47 6-13 1h-31l-43-5-32-5-40-8-39-10-16-5-15-5-17-7-11-8-9-8-6-10-3-13-2-12-1-11-1-162-4-16-7-14-11-14-7-7-12-9-14-8-16-7-21-5-9-1h-116l-28 2-32 6-30 10-20 9-22 12-13 9-13 10-12 11-8 7-8 8-7 8-9 11-14 21-13 24-8 18-8 24-5 24-4 28-1 138v669l-1 121v78l2 11 5 13 7 11 10 10 13 8 10 3 9 1 101 1-6 8-9 10-10 9-2 3h-109l-14-4-12-6-10-8-9-12-5-10-3-11-1-8v-1057l3-31 5-25 8-26 9-21 12-22 8-12 8-11 11-14 14-15 13-12 14-11 24-16 27-14 24-9 22-6 20-4 11-1z" fill="#F9F8F8"></path><path transform="translate(823,891)" d="m0 0h2l1 7 6 1 1 1h294l73-1h16l6-3h2v24l-4 41-5 44-9 64-8 45-2-4v-4l-2-1-2-3-4-2-17-1h-144l-12-1h-49l-21 1-21-1h-32l-23-1h-10l-4 1-1 3h-2l-2 4-2-1-5-27-7-48-4-31-4-37-3-24-2-28z" fill="#272A2B"></path><path transform="translate(1592,1188)" d="m0 0 2 3 5 2 17 1h11l13 1 50-1 12-1 14-1 3 1 8-1h18l2 5v276l-1 20-5 15-5 9-9 10-10 8-11 5-9 2-72 1h-36l-7-7-9-11-12-15-12-16-14-20-9-13-9-15-7-15-1-5v-14l5-13 10-18 9-24 6-32 9-32 10-28 16-41 14-29z" fill="#272A2B"></path><path transform="translate(990,727)" d="m0 0 13 1 25-1h22l9 1 37 1h69l36 1h12l10 4-1 14v17l4 57v60l-1 20h-1v-6l-8 4h-29l-61 1h-293l-3-1v-2h-4l-1-7h-2l-1-2-1-27v-23l2-42 2-28v-32l1-5 5-2 7-1h16l14-1 2 1 7-1h19l26 1 12-1 32 1z" fill="#272A2B"></path><path transform="translate(772,600)" d="m0 0 4 2 4 5h107l36-1h223l40 1h79l4-2v-2h3l1-2h2l-1 9-8 27-8 18-8 14-10 19-7 16-7 20-3 10-9-2-4-1h-18l-39-1h-69l-25-1-9-1h-32l-16 1-12-1-25 2-32-1-15 1-32-1h-14l-3 1-2-1-19 1h-11l-11 2v5l-2-2-3-15-10-25-14-28-9-16-8-20-8-27z" fill="#272A2B"></path><path transform="translate(990,208)" d="m0 0h50l17 4 15 5 18 8 15 9 16 13 8 7-1 4-10 9-9 10-4 2-8-8-15-11-16-8-13-5-18-4-23-2-23 3-15 4-16 7-14 8-13 10-7 7-11 14-11 17-7 18 1 8 5 11 10 24-2 2-3-3-10-22-3-9-3 13v10l7 15v3l-5-2v-2h-2l3 18 4 15 2 4h8l5 5 3 6-1 15 1 3 4-1 2-2 4 1 3 5-4 3h-3l2 4 5 5 13 11 15 9 13 6 18 6 17 2 18 1 21-3 24-8 13-7 14-10 10-9 6-6-1-6 12-28 2-5-5-2 1-5 2-3h15l3-12 1-7v-9l-4-1 2-6 2-5-1-12-1-8-1-1-6 15-7 13h-2l1-6 10-24 4-10-3 1-2 4-13 13-4 9-4 6-2-1 1-4-9 7-7 8-12 11-52 52-6 3-6-2-10-9-68-68-5 2-3-4-4-10-9-9 1-4 1-1-1-9-2-5 1-5 3 3 3 10 14-3-3-8-1-4 3-1 2 1 2 10 10-1-1-5-2-6 5-1 4 12 15 5-3-9v-10l4 1 2 14 1 8 4 2 6 5v2l6 3-2-6-3-24v-6h3l2 10 2 19 2 12 20 20 4 5 5-1 15-16 10-10 4-38 3-1-1 20-1 11-1 3 8-7 8-8 3-18h4l-1 9v3l11-11 8-7 53-53 9-6 10-4 4-1h15l12 4 13 8-1 5-61 61h-2l-2 7-4 8 8-7 8-8 5-4 3 1 6 20v3h2l1-6 4-1 1 3-6 11 1 19h2l3-9 10-19h3l-3 9-14 28-2 22-4 19-1 7 2 3v10l-5 12-6 14-5 6-2 1-9 1-5 5-9 10-12 12-11 8-18 11-15 7-23 7-11 2-19 1-31-1-18-4-16-5-16-8-15-9-13-10-10-9-11-12-10-14-10-16-10-27-5-23-2-13-15-27-3-5v-3h3l12 20 4 7 1-19v-12l-2-4 5-2 4-15 6-15 9-17 8-12 8-10 9-10 8-7 13-10 15-9 14-7 17-6z" fill="#00B325"></path><path transform="translate(1377,237)" d="m0 0h118l25 2 28 5 20 6 17 6 20 9 19 11 13 9 9 7 11 9 12 11 15 15 13 17 10 15v3h-7l-10-3-39 1-19 1h-49l-35-1h-90l-15 1h-60l-27-2h-69l-4 1-3 3-5 1-1-1v-45l4-16 9-16 11-13 7-7 17-12 16-8 15-5 15-3z" fill="#272A2B"></path><path transform="translate(859,1096)" d="m0 0h13l24 1h28l23 1 25-1h45l18 1h144l9 1 6 2 3 9v9l-8 39-4 31-5-1v2h-2v3l-2 1-14 1h-55l-35 1h-51l-39 1-40-1h-48l-17 2-14-7-4-33-5-23-5-26 1-5 5-6z" fill="#272A2B"></path><path transform="translate(301,1370)" d="m0 0h1l1 24 7-1h145l47 1h18l7 2 3 5 2 2 2 5 2 1 1-2 2 7v12l-4 12-10 18-8 12-24 34-16 20-9 11-8 9-10 1h-22l-78-1-13-4-14-9-10-10-5-8-6-17-1-8z" fill="#37393B"></path><path transform="translate(1745,1384)" d="m0 0h1l1 39v50l-1 20-5 15-5 9-9 10-10 8-11 5-9 2-72 1h-36l-7-7-9-11-12-15-12-16-14-20-9-13-9-15-7-15-1-5v-14l2-6 3-1 5-10 6-3h11l16 1h60l35 1h59l23 1h15z" fill="#383A3C"></path><path transform="translate(1719,820)" d="m0 0 1 3v4l17-1 6-2h2l1-2v208l-2-3-7-2h-20l-45-1-8 2-2 3-3 11v5l1 4h10l20-2h50l6-2v56l-6-2-2-1-23-1-10-1h-10l-15 1h-28l-13 3-3 1-2 7-3 8v5l2 2h45l6-1 34-1 22-1 5-1 1 1v54l-1 1-7-1h-13l-19-2h-76l-13-1-11 2-7 4 1-5 15-30 11-23 12-28 13-34 8-27 3-17 4-17 6-19 15-37 7-20 2-9 2-30 3-17 5-19 10-21z" fill="#272A2B"></path><path transform="translate(1658,505)" d="m0 0 32 1 16 1 26 1 7 1 5 4 1 2 1 15v18l-4 5h-2v9l5 2 2 1v611l-1 19-1-3-14 1h-8l-5 1-4-1-18 1-10 1-52 1-13-1h-12l-10-1-6-3-1-4 6-11 5-2 3-2 12-2 21 1h67l20 2h12l7 1v-54l-5 1-22 1-34 1-9 1h-42l-3-4 1-7 4-10 4-4 15-3h32l9-1h10l10 1 23 1 8 4-1-55-7 2h-52l-16 2h-8l-2-1-2-4 1-9 3-9 4-3 12-1 40 1h19l8 3v-203l-8 3-14 1-3-1-1-7 10-25 4-20 1-10v-21l-4-28-6-28-4-8-4-3-5-1h-7l-11 3 7-40 1-8v-18l-3-15-5-9-8-7-12-3h-13l-8 1 1-11v-20l-2-11-4-10-1-5-4-4v-2h-2l-2-3 1-5 1-2 3-1z" fill="#272A2B"></path><path transform="translate(556,237)" d="m0 0h116l14 2 19 5 21 10 14 10 12 11 11 14 7 14 2 9-1-2-7 2h-30l-20-1h-51l-9 1-71-1h-32l-26 1h-136l-7 1-1 2-3 1-5 6-4 2 2-4 13-13 8-7 12-10 14-10 13-8 23-12 20-8 22-7 32-6z" fill="#272A2B"></path><path transform="translate(823,891)" d="m0 0h2l1 7 6 1 1 1h294l73-1h16l6-3h2v24l-4 41-1 9h-1l-2-8 1-2h-2v-3l-4-1-8-3-22 1h-86l-32-2h-32l-13 1-17-1h-52l-22 1h-36l-22 1h-14l-16-1-5 2-1 2h-3v5l-2-1-3-24-2-28z" fill="#272A2B"></path><path transform="translate(1250,664)" d="m0 0 1 3-11 21-7 16-7 20-3 10-9-2-4-1h-18l-39-1h-69l-25-1-9-1h-32l-16 1-12-1-25 2-32-1-15 1-32-1h-14l-3 1-2-1-19 1h-11l-11 2v5l-2-2-3-15-10-25-8-16 1-3 7 3 4 5v2l3-1 2-4 15-1 18-1h67l39-1h24l33 1 26 1h22l11-1h78l31-1h27l16 1 7-1 5-2h5l2-6z" fill="#272A2B"></path><path transform="translate(551,310)" d="m0 0h48l56 1 12-1h50l26 1h21l7-1 3 9v43l-1 5-1-3-3 1-1-2-6-1h-324l-31-1h-16l-33-1h-8l-4-2 2-6 4-7 2-5 8-10 9-8h2l2-4h2l1-3h3l1-3 7-1h145z" fill="#272A2B"></path><path transform="translate(1659,307)" d="m0 0 6 3 5 5 5 3 9 9 13 17 10 15v3h-7l-10-3-39 1-19 1h-49l-35-1h-90l-15 1h-60l-27-2h-69l-4 1-3 3-5 1-1-1v-45l1-5 4-2 5 3 7-2h22l17-1 81-1h47l74 1h69l26 1 25-2 5-1z" fill="#272A2B"></path><path transform="translate(1208,1038)" d="m0 0h1v10l-6 39-5 27-2-4v-4l-2-1-2-3-4-2-17-1h-144l-12-1h-49l-21 1-21-1h-32l-23-1h-10l-4 1-1 3h-2l-2 4-2-1-5-27-4-29v-6h3l5 5 5 4h12l21-2h175l21-1h13l43-2h60l9-4h2z" fill="#272A2B"></path><path transform="translate(1172,236)" d="m0 0h15l12 4 13 8-1 5-61 61h-2l-2 7-8 15-5 15-9 17h-2l1-6 10-24 4-10-3 1-2 4-13 13-4 9-4 6-2-1 1-4-9 7-7 8-12 11-52 52-6 3-6-2-10-9-68-68-5 2-3-4-4-10-9-9 1-4 1-1-1-9-2-5 1-5 3 3 3 10 14-3-3-8-1-4 3-1 2 1 2 10 10-1-1-5-2-6 5-1 4 12 15 5-3-9v-10l4 1 2 14 1 8 4 2 6 5v2l6 3-2-6-3-24v-6h3l2 10 2 19 2 12 20 20 4 5 5-1 15-16 10-10 4-38 3-1-1 20-1 11-1 3 8-7 8-8 3-18h4l-1 9v3l11-11 8-7 53-53 9-6 10-4z" fill="#00B325"></path><path transform="translate(862,1489)" d="m0 0 5 1 9 3 11-2h38l39 1 43-1h104l47-1h16l12-1 3 43v10l-3 1h-306l-21-1-1-5 2-26z" fill="#272A2B"></path><path transform="translate(1183,1187)" d="m0 0h1v17l-3 39-3 25h-1v-14h-2l-2-5-13-2h-283l-7 2-2 1-1-2-3-38v-21l4 4 10 4 19-2h57l35 1 32-1h61l33-1h48l15-1v-3h2v-2z" fill="#272A2B"></path><path transform="translate(310,428)" d="m0 0h1v5l5-1 2-1h7l3 1 30 1h16l16-1h19l52 1h28l12 3 4 3v2l-16 8-13 9-8 8-8 14-3 13v9l3 16 3 6-4-2-10-7-10-4h-17l-10 5-8 7-5 3-2 3-9 3h-77l-10-1v-51l4-28z" fill="#272A2B"></path><path transform="translate(776,579)" d="m0 0 6 2h8l17-2h28l21 1h21l22 1 15 1 4 1 15-1 5-1 3 2h2l1-3 15 1 38 5 11 1h31l21-2 31-4h7l4 1h24l17 1 15-2h15l8-1 28-1 5 1 18-1 29 1 13 3 5 2-2 13-1 5-3-1-4 1v2l-4 3h-83l-37-1h-223l-44 1h-98l-6-7-3-2-1-9 2-10z" fill="#37393B"></path><path transform="translate(1650,1415)" d="m0 0h94l1 1 1 14v26l-1 11-4 2h-22l-40-1h-87l-21-1h-23l-10 3-5 1-7-10-9-15-7-15-1-5v-8l2-1 8 2h34l4-1 32 1 25-1 24-2z" fill="#272A2B"></path><path transform="translate(1287,358)" d="m0 0h73l23 2h60l19-1h87l37 1h48l26-1 31-1 9 3 7 1 1-2 11 20-3 3-7 3h-63l-21 1h-145l-21-2-9 2-16-2h-6l-4 1h-22l-16 1h-29l-9-1h-56l-8 1-3-2v-2h-7v-20l8-1 1-3z" fill="#37393B"></path><path transform="translate(536,1414)" d="m0 0h3v12l-4 12-10 18-8 12-5 5-1-2-9-3h-84l-58-1-27-1-14 1-13-1-3-7-1-10v-29l1-3 4-1 5 3 16-2 29 2h19l11-1h30l7 1h22l8-1h59l10 1 7 1 2-4z" fill="#272A2B"></path><path transform="translate(302,1339)" d="m0 0 1 2 5 2 3 2h12l14-2 9 1h16l32-1h24l32-2 36 1h17l6-3h2l6 25 9 21 10 20v4l-4-2-2-5-3-3v-3l-7-1h-19l-60-1h-131l-7 1-1-1-1-35z" fill="#26292A"></path><path transform="translate(352,343)" d="m0 0 1 2-6 11v2l3 1h18l34 1h16l28 1h318l5 2 3 1 2-2v26h-1l-1-11-3 1-2 4-5 3-5 1-35 1h-55l-16-1h-15l-23 1-7-1h-175l-94 2-5-3-5 1 2-6 11-20 11-16z" fill="#383A3C"></path><path transform="translate(1740,1340)" d="m0 0 5 1 2 4v36l-1 3-1 12h-21l-24-1h-60l-37-1h-59l-12-1h-8l-5 3-5 10-2 1 1-6 11-20 9-24 4-16 4 2v3l5 2h14l8-1h22l27-1 16-2 11-1 26 1 28-1 9-1 23-1z" fill="#272A2B"></path><path transform="translate(809,654)" d="m0 0 50 1h147l44-1 34 1h21l36 1h89l8-1 7 1v2l3-1 6 3-2 5-5 5-3 6-9 2-4 1-9 1-15-1h-33l-24 1h-75l-16 1h-21l-22-1-44-1h-24l-37 1h-66l-10 1-15 1-2 4h-3l-1-4-3-1-2-2-6-3-7-16 1-4z" fill="#37393B"></path><path transform="translate(858,1543)" d="m0 0 331 1 2 7 4 23h-342l4-30z" fill="#FAFAFA"></path><path transform="translate(990,727)" d="m0 0 13 1 25-1h22l9 1 37 1h69l36 1h12l10 4-1 14-2 3-14 2-49-1-29 1h-29l-40 1-45-1h-180l-6-2-1 10h-1l-1-24 1-5 5-2 7-1h16l14-1 2 1 7-1h19l26 1 12-1 32 1z" fill="#383A3C"></path><path transform="translate(833,876)" d="m0 0h32l38 1h62l12-1 4 1 9-1 14 1 8-1h73l4 1 11-1 13 1 9-1h11l6 1 14-1 31 1h23l9 1 8 4 1 3v17h-1v-6l-8 4h-29l-61 1h-293l-3-1v-2h-4l-2-10 3-7 3-4z" fill="#383A3C"></path><path transform="translate(1746,789)" d="m0 0h1v387l-1 19-1-3-14 1h-8l-5 1-4-1-18 1-10 1-52 1-13-1h-12l-10-1-6-3-1-4 6-11 5-2 3-2 12-2 21 1h67l20 2h12l7 1v-54l-5 1-22 1-34 1-9 1h-42l-3-4 1-7 4-10 4-4 15-3h32l9-1h10l10 1 23 1 8 4-1-55-7 2h-52l-16 2h-8l-2-1-2-4 1-9 3-9 4-3 12-1 40 1h19l8 3v-203l-8 3-14 1-3-1-1-7 5-12h2l1-2h2v-2h2v-2h4v-2h6l3 2 1 3z" fill="#37393B"></path><path transform="translate(1633,283)" d="m0 0 7 4 17 14 12 11 3 2v2l-4-2-6-5h-3l-2 1-7 1-24 2-29-1h-80l-76-1h-48l-63 1-24 1h-15l-7 2-6-3-2 1 1-7 4-10 4-5 5-2 9-2h90l47-1 19 1h108l36-1h18l14 1 2-2z" fill="#37393B"></path><path transform="translate(412,284)" d="m0 0 2 1-1 2h9v-2h66l22 1 43 1h56l73 1h45l16-1 14 1 8 5 5 10 2 9-1-2-7 2h-30l-20-1h-51l-9 1-71-1h-32l-26 1h-136l-7 1-1 2-3 1-5 6-4 2 2-4 13-13 8-7 12-10z" fill="#37393B"></path><path transform="translate(1592,1188)" d="m0 0 2 3 5 2 17 1h11l13 1 50-1 12-1 14-1 3 1 8-1h18l1 3v55l-2 2-5-3-13-1-14-1-9-1-32-1-53-1h-42l-6 4-4 4h-2l1-5 13-32 12-24z" fill="#26292A"></path><path transform="translate(1038,801)" d="m0 0 25 1 8 1h50l30 1h17l7 1 17 1h9l10-1 8 2 4 4 2-2v12l-6 2-5 2h-13l-32-1-36 2-48 1h-142l-5-1h-29l-19 1h-20l-23 1-9 1-8-2-4-3-1-14 2-4 9-2 14 1h78l18-1h37l29-1 6-1z" fill="#383A3C"></path><path transform="translate(1546,1487)" d="m0 0 23 6 10-2h25l22-1h91l23 1 2 1 1 7-4 13-6 9-9 9-11 7-7 3-9 2-72 1h-36l-7-7-9-11-12-15-15-20z" fill="#272A2B"></path><path transform="translate(510,1474)" d="m0 0 1 3-12 16-9 13-9 11-11 14-10 11-10 1h-22l-78-1-13-4-14-9-7-7-6-11-3-9-2-8 3-2 16-1 79-1h37l30 1h21l7-2 4-4z" fill="#272A2B"></path><path transform="translate(859,1096)" d="m0 0h13l24 1h28l23 1 25-1h45l18 1h144l9 1 6 2 3 9-3 5h-2v3l-7 3-10 1h-40l-17 1-5-1-5 1h-75l-22 1h-33l-36-1h-55l-17 1-7-1-5-2v-2l-4-2-2-3-1-5h-2l1-5 5-6z" fill="#383A3C"></path><path transform="translate(949,951)" d="m0 0h52l20 1 18-1h24l32 2h87l21-1 8 3 4 2v3h2v6l-6 5-12 2h-15l-14-1-6 1h-20l-2-1-5 1-33 1h-18l-25 1h-177l-22 2-12 2h-8l-3-1-3-6-5-5-2 2v-7l1-5h3l1-3 7-2 15 1h14l32-1h33z" fill="#383A3C"></path><path transform="translate(1564,451)" d="m0 0 4 1 3 2v2h7l8 3 17 1h25l10-1 62-1h36l5-1 1-2 2 4 3 22v84l-1 5h-1l-1-6-4-2-1-7 6-7v-18l-1-17-4-2-1-1-7-1-33-1-9-1-32-1-18 1-1 7 1 3h2l6 7-2 2-6-7-9-6-9-3h-10l-12 4-13 9-1-2 3-7 1-8v-19l-4-11-9-13-13-11z" fill="#272A2B"></path><path transform="translate(859,1462)" d="m0 0h1v8l9-4h257l16 1h35l11 4-1 35h-1v-17l-16 2h-24l-41 1h-109l-37 1-46-1h-29l-9 2-8-3-5-2v15h-1l-1-23-1-10z" fill="#383A3C"></path><path transform="translate(851,1024)" d="m0 0 13 1h38l31 1h136l87 1 4-1 7 1 19-1 13 1 9 5v5h2l-1 4-12 6h-64l-39 2h-22l-13 1h-175l-20 2h-12l-10-8v-2h-2v-13l5-2 2-2z" fill="#37393B"></path><path transform="translate(874,1393)" d="m0 0h157l22 1 23-1h14l39 1h14l18-1 14 2 4 3 5 10v7l-2 1-17 1h-23l-9 1h-262l-8-3-1-1-2 4 1-11 2-6 5-5z" fill="#37393B"></path><path transform="translate(1719,820)" d="m0 0 1 3v4l17-1 6-2h2l1-2v146l-5 4-6 3h-21l-10 1h-9l-14 2-2-4-1-6-2 1 3-9 11-28 5-15 1-6 2-30 3-17 5-19 10-21z" fill="#27292B"></path><path transform="translate(877,1246)" d="m0 0h286l10 2 2 2v4h2v9l-1 2-3 1-4 4-76 1h-165l-27 1-8 1-12-1-8-4-4-5-1-13 3-3z" fill="#37393B"></path><path transform="translate(875,1170)" d="m0 0 13 1 12 1h121l51 1h95l9 1 6 5 1 2v7h-3v2h-2v3l-2 1-14 1h-55l-35 1h-51l-39 1-40-1h-48l-17 2-14-7v-11l1-5h4v-2z" fill="#383A3C"></path><path transform="translate(877,1310)" d="m0 0h1l1 16 3-6 7-4 14 1h104l57 2h46l12 1h33l9 4 2 1 2 11-1 3-3 2-9 1h-53l-35 1h-114l-29 1-25-1-14 1-9-3z" fill="#37393B"></path><path transform="translate(1477,434)" d="m0 0h27l7 1 1 2 4 2-12 9-6 10-5 10-6 18-6 19-12 36-7 22-10 27-7 18-5 13-5 10-4 4-5 2h-9l-9-4-6-7-3-6-2-10 5-15 6-8 12-11 7-8 8-10 12-19 6-11 8-16 10-24 3-12v-27l-3-13z" fill="#272A2B"></path><path transform="translate(1585,1317)" d="m0 0h24l39 2h49l32 2 9 1 8 2v18l-6-1-30 2h-7l-7 1-31 1-22-1-21 2-5 1-39 1h-13l-8 1h-11l-5-3v-3l-3-1-2 2 1-10 2-2 4-10 12-3h12z" fill="#383A3C"></path><path transform="translate(312,1317)" d="m0 0h79l13 1 43 1h32l17 1 6 3 2 4 3 1 2 3h1l1 8-8 4h-28l-28-1-34 2h-22l-36 1h-14l-5-1-13 2h-12l-8-5-1 18h-1v-37l6-2z" fill="#383A3C"></path><path transform="translate(545,448)" d="m0 0h2l6 9 7 2 7 1v-2l4-1 1 2 2 18 4 15 11 25 9 17 7 12 6 9 9 12 9 10 13 13 6 10 2 6v10l-4 10-5 6-8 4-3 1h-8l-8-4-7-14-5-12-7-19-11-30-7-21-6-20-6-17-4-13-8-23-8-14z" fill="#272A2B"></path><path transform="translate(1746,1456)" d="m0 0h1v17l-1 20-5 15-1-3 2-6v-7l-33-1h-88l-17 1h-28l-8 2-22-6-5-5-7-10v-2l9-4 8-1h29l16 1h95l40 1h10l4-1v-10z" fill="#37393B"></path><path transform="translate(401,523)" d="m0 0h2l-2 5-3 5-3 11v27l1 8h-24l-11 4-6 5-5 10-2 3-1-3 2-8v-7l-6-2-32 2-5 1-1 2h-2l-1 15h-1v-70h87l9-3z" fill="#272A2B"></path><path transform="translate(340,580)" d="m0 0h5v2l4 1 1 7-2 9-1 11v22l4 26 3 20-6-1h-19l-2 2h-13v3h-6l-3-3-4-2v130h-1v-189l2-32 9-4 21-1z" fill="#282B2C"></path><path transform="translate(657,423)" d="m0 0 4 1v2l4 2 2 4h2l6 10 3 3 7 19 1 13-7 8-5 4-9 4-16 4-6 1h-12l-7-4-10-6-8-9-5-10-2-9 4-9 5-5 3-1 1-3 19-11 6-2h12z" fill="#FFE2D4"></path><path transform="translate(310,428)" d="m0 0h1v5l5-1 2-1h7l3 1 30 1h16l16-1h19l52 1h28l12 3 4 3v2l-16 8-11 7-7 1-6 1h-91l-20 1-31-1-11-1-7-1 1-9z" fill="#37393B"></path><path transform="translate(1738,432)" d="m0 0 2 4 3 17-1 4-6 2h-36l-62 1-17 1h-24l-11-1-8-3-7-1v-2l-4-2-5-1-14-8-11-4 4-1v-2l8-1h12l21-1h137l4-1h7l2 2h5z" fill="#37393B"></path><path transform="translate(1384,424)" d="m0 0h7l4 1v3l14 1 9 5 11 6 4 3v2h2l1 5h2v2l5 1 4 6v6l-4 8-4 5-2 5-8 8-7 4-3 2h-23l-8-3-13-4-9-6-2-2-2-6v-9l3-8 1-7 11-20z" fill="#FFE2D4"></path><path transform="translate(1746,1197)" d="m0 0h1v54l-1 19-3-3-7 1h-15l-34 1h-32l-20 1h-71l-3-7 5-13 8-6 5-1h47l45 1 36 1 18 2h8l8 2 3 2 1-1z" fill="#383A3C"></path><path transform="translate(782,526)" d="m0 0 5 1 10 9 9 6 28 11 17 5 18 5 33 8 42 8-1 4-3 1-2-2-11 1-10 1-18-2-30-1h-20l-22-1h-20l-17 2h-8l-6-2h-4l-1 10-2-1-4-30v-29l4 1h8z" fill="#272A2B"></path><path transform="translate(1259,529)" d="m0 0 4 1 2 2h11l6-2 1 2v22l-3 29-3 3-7-3-9-2-37-1-11 1-4-1-28 1-15 1h-10l-13 2-18-1h-23l-4-2 7-2 51-10 39-10 16-5 17-6 12-5 12-8z" fill="#272A2B"></path><path transform="translate(351,1242)" d="m0 0 8 1h15l18 1 6 1 35 1 21-1h14l10 4 4 6 2 7-1 5-3 2h-87l-32 1-16-1h-37l-6-4-1-2v-9l1-3 9-7 24-1z" fill="#383A3C"></path><path transform="translate(1702,655)" d="m0 0h35l6 3h2l2-2v133l-1 23h-1l-1-10-9-2v2h-4v2h-2v2h-2l-2 4 1-7 4-11 3-17 1-10v-21l-4-28-6-28-4-8-4-3-5-1h-7l-11 3 4-22z" fill="#272A2B"></path><path transform="translate(310,1173)" d="m0 0h126l9 3 5 5 2 5v7l-2 1h-142l-6-3-1-2v-9l4-5z" fill="#383A3C"></path><path transform="translate(1746,789)" d="m0 0h1v311h-1l-1-54-7 2h-52l-16 2h-8l-2-1-2-4 1-9 3-9 4-3 12-1 40 1h19l8 3v-203l-8 3-14 1-3-1-1-7 5-12h2l1-2h2v-2h2v-2h4v-2h6l3 2 1 3z" fill="#37393B"></path><path transform="translate(1658,505)" d="m0 0 32 1 16 1 26 1 7 1 5 4 1 2v16l-4 2h-86l-2-2v-3l-3-1-5-6-3-2v-2h-2l-2-3 1-5 1-2 3-1z" fill="#383A3C"></path><path transform="translate(311,1097)" d="m0 0 90 1 5 2v2l6 3v3h2l4 11v2h-111l-5-2v-17l1-2z" fill="#383A3C"></path><path transform="translate(312,505)" d="m0 0h33l20 2h30l13 4 2 4-1 2h-2l-1 4-7 5-2 3-9 3h-77l-10-1v-18l1-2 5-3h2v-2z" fill="#37393B"></path><path transform="translate(1696,591)" d="m0 0 3 3 4 11v3h7l7-3 12-1 8-1 9-3 1 19v37l-1 5-1-3-3 1-5-3h-38l-1 3 1-13 2-15v-18l-3-15-2-4z" fill="#272A2B"></path><path transform="translate(1300,435)" d="m0 0h6l4 1 7-1 3 3-8 9-9 12-8 14-7 17-4 27-1 15-2-1-5 2h-12l-1-3-3-1 6-11 3-8 3-19 1-19 1-35h7l5-1z" fill="#272A2B"></path><path transform="translate(741,435)" d="m0 0h22l1 1h10l1 45 2 17 3 16 6 12-4 1-5 5h-8l-4-2-1-3-2-21-3-18-10-22-11-16-8-10 2-3z" fill="#272A2B"></path><path transform="translate(1477,434)" d="m0 0h27l7 1 1 2 4 2-12 9-6 10-5 10-6 18-6 19-8 24-5 2v-5l-7 1-1 5-7-3 9-19 10-25 2-9v-27l-3-13z" fill="#282B2C"></path><path transform="translate(310,1024)" d="m0 0h15l4 1 43-1 7 2 6 3 3 3 1 2h-2l2 5-1 6h-2v2l-7 1h-51l-12 1-8-1v-2l-6-2v-16z" fill="#383A3C"></path><path transform="translate(1532,458)" d="m0 0 10 1 13 6 5 5v7l-9 16-5 5-6 3h-14l-5-3-7-6-3-7v-16l3-5 5-4 2-1z" fill="#FFE2D4"></path><path transform="translate(519,457)" d="m0 0 13 4 4 5 1 16-4 9-6 7-6 3-11 1-7-3-3-2v-2l-4-2-8-14-1-4 3-5 4-3h2l1-3 5-3 8-3z" fill="#FFE2D4"></path><path transform="translate(1694,950)" d="m0 0h22l19 1 9 3 1 1v14l-4 3-6 3h-21l-10 1h-9l-14 2-2-4v-8l4-9h2l2-4z" fill="#383A3C"></path><path transform="translate(434,527)" d="m0 0h6l8 10 3 7v3h2l1 5-4 7-10 4-9 5h-4l-1-2-8 1v-2l-4-2-5-6-2-5v-7l4-6 6-3 8-6z" fill="#FFE2D4"></path><path transform="translate(1612,527)" d="m0 0 11 3 8 6 4 5 1 3 4 3-2 10-4 5-9 6h-7l-20-10-2-2-1-6 8-16 4-5z" fill="#FFE2D4"></path><path transform="translate(303,952)" d="m0 0h47l9 1 6 4 3 6v7l-1 1-59 2-6-2v-18z" fill="#383A3C"></path><path transform="translate(329,676)" d="m0 0h2v2l-4 4-4 9-5 22-4 26-1 26h-1l-1-13-6-3-2-3v-3h-2v-66l5 1 2 3 6 1v-3l5-1h8z" fill="#26292A"></path><path transform="translate(1401,599)" d="m0 0h1l1 10 5-3h2l1-2 7 2h14l5-2v-2l9-1-1 7-5 13-5 10-4 4-5 2h-9l-9-4-6-7-3-6-2-10 3-10z" fill="#272A2B"></path><path transform="translate(1666,590)" d="m0 0 9 2 9 4 5 5 4 11-5 12-4 4-3 1h-10l-7-4-10-4-2-2 1-11 3-12 6-5z" fill="#FFE2D4"></path><path transform="translate(377,589)" d="m0 0 6 1 7 1 3 3 1 5v18l-5 6-9 5-8 3-5-1-5-4-6-8v-7l4-9 5-6z" fill="#FFE2D4"></path><path transform="translate(1709,873)" d="m0 0h10l15 2 4 3v2l5 2 2 3v12l-2 3-12 2-33-1v6h-1v-12l1-14 3-3 5-3z" fill="#383A3C"></path><path transform="translate(1700,579)" d="m0 0 21 2h11l7 2 6 5v13l-11 4h-11l-10 2-3 2-7-1-6-16h-2l-3-8 2-3z" fill="#383A3C"></path><path transform="translate(335,655)" d="m0 0h13l3 3 3 20-6-1h-19l-2 2h-13v3h-6l-3-3-3-2v-18l6-3h11z" fill="#37393B"></path><path transform="translate(1702,655)" d="m0 0h35l6 3h2l2-2v22h-3l-10 2h-12l-5-4-2-1h-9l-11 4-2-1 4-21z" fill="#37393B"></path><path transform="translate(310,877)" d="m0 0h29l8 4 3 5 1 20h-1v-6l-42 1-6-4v-16l5-1v-2z" fill="#383A3C"></path><path transform="translate(1428,580)" d="m0 0 12 1 3 1v2l5 1 3 2-4 16-1-2-9 1v2l-5 3h-15l-6-2-6 4h-2l-2-10 1-2 5-7h2v-2l12-7h4z" fill="#37393B"></path><path transform="translate(340,580)" d="m0 0h5v2l4 1 1 7-3 10-6 3-23 1-14-1-2-2v-15l9-4 21-1z" fill="#383A3C"></path><path transform="translate(926,399)" d="m0 0h8l5 5 8 13 3 8v6l-5 6-6 2-7-1-6-7-8-14-1-3v-7l5-6z" fill="#1C1D1E"></path><path transform="translate(599,582)" d="m0 0 10 2 8-1 11 2h3v2h3l5 5 2 4h2l1 5-4 3-4-1-2 1-16 1-5 2h-7l-2-4-2-1-1 2-1-5v-9h-2v-7z" fill="#37393B"></path><path transform="translate(1477,434)" d="m0 0h27l7 1 1 2 4 2-12 9-5 8-6 2-7 2v2h-5v-3l-5-1v13h-1l-1-22-3-13z" fill="#37393B"></path><path transform="translate(581,510)" d="m0 0 3 1 2 2 3 4 9 17 7 13-8 8-10-3v-2l-2 1-2 4-6-18-5-17 1-5 4-1 2 1v-3h2z" fill="#26292A"></path><path transform="translate(741,435)" d="m0 0h22l1 1h10v19l-8 1-3-1v-2l-5 2-3 3-10-1-1-5-2-1v-3l-4-1-5-3-3-5 2-2z" fill="#37393B"></path><path transform="translate(1300,435)" d="m0 0h6l4 1 7-1 3 3-8 9-2 2v-2l-5 4h-2v3l-9 3h-7l-6-2-7-1v-17h7l5-1z" fill="#37393B"></path><path transform="translate(1736,754)" d="m0 0 5 2v2h4l2 3v28l-1 23h-1l-1-10-9-2v2h-4v2h-2v2h-2l-2 4 1-7 4-11 3-17 2-19z" fill="#272A2B"></path><path transform="translate(547,433)" d="m0 0 12 1 9 3 2 1v2l5 1-3 18-5-1v2l-4 1-7-2-4-2-5-7v-2l-3 1-1-2 1-2-4-2-1-3 2-5z" fill="#383A3C"></path><path transform="translate(1721,686)" d="m0 0h2l1 6h2l4 19v8l-11-1-10-5-2-2v-9l2-4 7-6z" fill="#FEDFD0"></path><path transform="translate(1497,455)" d="m0 0 1 3-5 10-6 18h-3l-1 4-4 1-4-2h-3l1-8 2-10 1-13 5 1 2 2 3 1v-2l5-3 5-1z" fill="#272A2B"></path><path transform="translate(1121,401)" d="m0 0h12l3 1-3 12-8 17-9 14-4 3-3-1 1-6 7-15 6-15-5-2 1-5z" fill="#1C1D1E"></path><path transform="translate(327,683)" d="m0 0 1 4 3 5v2l4 2 3 7v6l-3 5h-2v2l-7 3h-8v-11l5-20 2-4z" fill="#FEDECF"></path><path transform="translate(1270,504)" d="m0 0 5 5 4 3 5-1-1 21-2-1-5 2h-12l-1-3-3-1 6-11 3-8z" fill="#37393B"></path><path transform="translate(776,498)" d="m0 0h1l3 16 6 12-4 1-5 5h-8l-4-2-1-3-1-19 3-2 4 3 4-1z" fill="#37393B"></path><path transform="translate(300,1298)" d="m0 0h1l1 188 2 11 6 16 7 9 7 7 15 9 17 4v1h-9l-12-4-12-8-11-11-8-14-4-12-1-8v-78z" fill="#F4AD89"></path><path transform="translate(307,805)" d="m0 0h8l5 3 4 8v3h2l-2 5-4 2-10 1-8-4v-15z" fill="#383A3C"></path><path transform="translate(1168,417)" d="m0 0 3 3v10l-5 12-6 14-5 6-2 1h-9l2-5 10-16 11-24z" fill="#1C1D1F"></path><path transform="translate(399,768)" d="m0 0h3l7 16 3 10-1 9-2 4-5 1-4-5-2-10v-22z" fill="#292C2D"></path><path transform="translate(545,448)" d="m0 0h2l6 9 7 2 7 1v-2l4-1 1 2 2 20-8 2v-2l-6 1-1 2-6-18-8-14z" fill="#282A2C"></path><path transform="translate(1735,727)" d="m0 0h12v34l-6-3-1-2h-4-1l-2-21v-6z" fill="#383A3C"></path><path transform="translate(1647,767)" d="m0 0 2 1v28l-3 9-2 3-5-1-3-4v-10l6-18z" fill="#1B1C1D"></path><path transform="translate(1021,456)" d="m0 0h6l1 1 1 35 2 1-13 1-1-2h2l1-35z" fill="#F4AD89"></path><path transform="translate(603,547)" d="m0 0 4 1 6 10 2 5-8-1-7-2v2l-6 1h-4l-1 4h-2l-3-9v-7l3-1v2h5l5 2 4-4z" fill="#1A1B1C"></path><path transform="translate(581,510)" d="m0 0 3 1 2 2 3 4 7 14h-6l-5-4-1 5-9-1-3-13 1-3 4-1 2 1v-3h2z" fill="#37393B"></path><path transform="translate(320,1525)" d="m0 0 5 2 5 3 4 1 13 4 4 1 13 3 5 1 87 1v1l-6 1h-22l-78-1-13-4-14-9z" fill="#383A3C"></path><path transform="translate(1738,1510)" d="m0 0 1 2-6 9-9 9-11 7-7 3-9 2-72 1h-36v-1l7-1 34-1h65l15-4 5-5 11-6 9-10z" fill="#383A3C"></path><path transform="translate(1222,918)" d="m0 0h1v15h-3l-8-4-8-1h-16l-26-1 1-2 7-1 43-1 6-3h3z" fill="#191A1B"></path><path transform="translate(1023,304)" d="m0 0 3 1v62l-3 2-1-1v-63z" fill="#222425"></path><path transform="translate(1467,511)" d="m0 0 3 1v3h5l1 4-3 10-5 2v-5l-7 1-1 5-7-3 3-7 4-4 4-6z" fill="#37393B"></path><path transform="translate(926,406)" d="m0 0h5l7 10 4 8v6l-7 1-6-10-4-7v-7z" fill="#F9F2EE"></path><path transform="translate(1182,775)" d="m0 0 23 1 13-1 4 1v7l-15-4-13 1h-31l-7-2 2-2z" fill="#191A1B"></path><path transform="translate(824,353)" d="m0 0 4 2 14 21 13 19 2 3v3l-4-1-7-10-18-27-4-7z" fill="#202223"></path><path transform="translate(1208,341)" d="m0 0h3l-1 4-7 14-10 17-9 15-3 2-1-4 13-22 13-23z" fill="#2A2C2D"></path><path transform="translate(309,730)" d="m0 0h4l1 2-1 33h-1l-1-13-6-3-3-6v-7h2l1-4z" fill="#37393B"></path><path transform="translate(900,414)" d="m0 0h7l5 5 3 6-1 9-1 6-5-5-4-12-6-7z" fill="#1D1E1F"></path><path transform="translate(1221,353)" d="m0 0h2l-1 6-7 10-11 16-10 15h-3l1-5 10-15 13-18z" fill="#252728"></path><path transform="translate(901,317)" d="m0 0 4 1 15 34 5 13v3l-3-1-8-17-12-28z" fill="#222324"></path><path transform="translate(1146,317)" d="m0 0 1 2-9 17-5 15-9 17h-2l1-6 10-24 6-13z" fill="#222324"></path><path transform="translate(1010,526)" d="m0 0h18v20l-5 1-4-1v-18l-9-1z" fill="#F1AB88"></path><path transform="translate(893,333)" d="m0 0 2 1 16 38-2 2-3-3-10-22-3-10z" fill="#222425"></path><path transform="translate(1037,305)" d="m0 0h3v47l-3-1z" fill="#232426"></path><path transform="translate(836,341)" d="m0 0h3l12 20 5 9v8l-3-4-14-25-3-5z" fill="#202223"></path><path transform="translate(1006,305)" d="m0 0h3v46l-3-1z" fill="#37393B"></path><path transform="translate(460,1199)" d="m0 0 4 4 11 24 1 7-3-3-3-1-5-7-1-7 1-5-5-9z" fill="#1A1C1D"></path><path transform="translate(427,1135)" d="m0 0 3 1 12 25-1 2-4-4v-2l-6-2-1-3-3-1-1-4 2-3z" fill="#1B1C1D"></path><path transform="translate(1190,332)" d="m0 0h3l-3 9-14 28-2-1 1-7 8-16z" fill="#2A2D2E"></path><path transform="translate(399,768)" d="m0 0h3l7 16 2 6v7l-2-3-4-8-3-2-3-1z" fill="#1B1C1D"></path><path transform="translate(988,305)" d="m0 0h3l2 10 2 19 1 4v8h-2l-3-11-3-24z" fill="#202223"></path><path transform="translate(572,478)" d="m0 0 3 3v7l-13 1-2-4v-5l6-1h4l2 1z" fill="#1A1B1C"></path><path transform="translate(815,547)" d="m0 0 6 1 10 4-1 4-3 3-8-1v-2h-3l1-6z" fill="#1B1C1D"></path><path transform="translate(1056,305)" d="m0 0h2l-1 20-2 17-3 2v-11l3-27z" fill="#222425"></path><path transform="translate(727,256)" d="m0 0 5 2 9 7 7 6-1 2-5-3-10-4v-2l-3 1-4-6z" fill="#1B1C1D"></path><path transform="translate(824,386)" d="m0 0 7 6 11 12 1 5-5-2-5-5-9-11z" fill="#222325"></path><path transform="translate(679,401)" d="m0 0 5 1 13 7 8 2 4 2 5 10-5-2-15-11-15-8z" fill="#1C1D1E"></path><path transform="translate(1475,480)" d="m0 0 6 1 6 2v3h-3l-1 4-4 1-4-2h-3l1-8z" fill="#1A1B1C"></path><path transform="translate(495,1286)" d="m0 0 1 2h2l4 13v5l-5-4-6-7 1-5 2-1z" fill="#1B1C1D"></path><path transform="translate(1204,1066)" d="m0 0h1v10l-2 7h-2v-2h-3l-2-5 2-5 3-4z" fill="#1A1B1C"></path><path transform="translate(1745,621)" d="m0 0h1v23l-5-5-1-2v-9l2-4z" fill="#191A1B"></path><path transform="translate(1200,557)" d="m0 0h7l1 2-1 2-10 3-7 2-5-2 3-3z" fill="#1B1C1E"></path><path transform="translate(1745,548)" d="m0 0h2v17l-1 5h-1l-1-6-4-2-1-7z" fill="#1B1C1D"></path><path transform="translate(397,1063)" d="m0 0h2l7 18-1 4-3-5-4-3v-2h-2l-2-8 3-1z" fill="#1C1E1F"></path><path transform="translate(1222,386)" d="m0 0h2l-2 6-12 13-4 4h-2l2-5 9-10z" fill="#2B2E2F"></path><path transform="translate(340,845)" d="m0 0 2 1 3 10v8l-1-2-4-1-3-5v-9h3z" fill="#1B1C1D"></path><path transform="translate(1225,549)" d="m0 0h5l2 4-3 3-5 1h-10l2-4z" fill="#1B1C1D"></path><path transform="translate(1187,1140)" d="m0 0h4v7l-2 7-6-1-1-4 3-7h2z" fill="#1A1B1C"></path><path transform="translate(1355,406)" d="m0 0h2l-1 3-11 7-5 4h-2l-1-6 7-5h7z" fill="#1C1D1E"></path><path transform="translate(1181,1208)" d="m0 0h1v19l-1 2h-5l-1-6 2-7 4-1z" fill="#191A1B"></path><path transform="translate(304,551)" d="m0 0 7 3v5l-4 3h-5l-1-1v-9z" fill="#191A1B"></path><path transform="translate(1642,786)" d="m0 0h2l1 7-2 9-7 1v-6h2l2-5z" fill="#272A2B"></path><path transform="translate(378,989)" d="m0 0 2 1 4 14-1 4-3-3-6-5v-3h2v-2h2z" fill="#1B1C1D"></path><path transform="translate(399,790)" d="m0 0 3 4 3 5v3h5l-1 5-5 1-4-5-1-3z" fill="#1B1C1D"></path><path transform="translate(348,921)" d="m0 0h6l5 14v5l-2-3v-3h-2l-7-7-1-4z" fill="#1B1D1E"></path><path transform="translate(1262,626)" d="m0 0 4 1 1 1-1 9-1 2-4-1-3-6 2-4z" fill="#1A1B1C"></path><path transform="translate(588,408)" d="m0 0 8 1v2l-8 7-2 2h-3l-1-4 1-2h2l1-5z" fill="#1A1C1D"></path><path transform="translate(970,306)" d="m0 0 4 1 2 14 1 8-4-2-3-11z" fill="#232526"></path><path transform="translate(1204,380)" d="m0 0 1 4-7 10-4 6h-3l1-5 8-12z" fill="#252728"></path><path transform="translate(1281,547)" d="m0 0h1v15l-7-2v-6l4-6z" fill="#1A1B1C"></path><path transform="translate(921,440)" d="m0 0 4 1 3 5-4 3-5 1-4-6 5-3z" fill="#1F2021"></path><path transform="translate(1175,1363)" d="m0 0 2 1 2 8v6l-4-2-3-2-1-6z" fill="#1A1C1D"></path><path transform="translate(1170,1287)" d="m0 0h3v8l-2 6-1-2h-4l-1-5 4-6z" fill="#1A1B1C"></path><path transform="translate(1231,702)" d="m0 0h1l-1 8-4 8-1-2 1-5-3-1-1-3 3-4z" fill="#1B1C1D"></path><path transform="translate(301,623)" d="m0 0 1 4 10 2v4l-6 2-5-1z" fill="#191A1B"></path><path transform="translate(344,625)" d="m0 0 2 1v13l-1-3-7-2-1-4 4-3h3z" fill="#191A1B"></path><path transform="translate(1745,842)" d="m0 0h1v20l-1-2-4-2 1-13z" fill="#191A1B"></path><path transform="translate(1745,916)" d="m0 0h1v21l-2-4v-3l-3-1-1-5 1-3h2z" fill="#191A1B"></path><path transform="translate(301,993)" d="m0 0 1 3 6-1 1 1-1 7-5 1-2 4z" fill="#191A1B"></path><path transform="translate(312,769)" d="m0 0 2 1 1 14-6-4-2-6 5-2z" fill="#1C1D1E"></path><path transform="translate(843,1066)" d="m0 0h2l3 4v8l-2 6-2-1-1-6z" fill="#1B1C1D"></path><path transform="translate(874,1284)" d="m0 0 3 1 1 5h2l2 5-5 5-3-10z" fill="#1B1D1E"></path><path transform="translate(772,403)" d="m0 0h1v16l-1-2-4-1-1-4 2-7z" fill="#191A1B"></path><path transform="translate(888,361)" d="m0 0 3 4 6 13v3l-5-2-4-13z" fill="#272A2B"></path><path transform="translate(1146,317)" d="m0 0 1 2-8 15-4 1 3-9z" fill="#2A2C2E"></path><path transform="translate(1074,306)" d="m0 0h4l-1 9-3 8-2 1v-8z" fill="#232526"></path><path transform="translate(950,308)" d="m0 0 5 1 2 8v4h-4l-4-10z" fill="#252728"></path><path transform="translate(854,1129)" d="m0 0 2 2 1 9 3 1 2 8-2 3h-2l-4-17z" fill="#1E1F20"></path><path transform="translate(822,848)" d="m0 0h4l2 7-2 4-4 1z" fill="#191A1B"></path><path transform="translate(919,313)" d="m0 0 3 3 3 8v5l-3 1-4-12z" fill="#212324"></path><path transform="translate(1430,628)" d="m0 0h5l-1 4-3 3-2 1h-6l2-5 5-1z" fill="#1C1D1E"></path><path transform="translate(1190,332)" d="m0 0h3l-3 9-3 6h-3l1-6z" fill="#242627"></path><path transform="translate(1668,992)" d="m0 0 2 4 1 4-5 7-2 3v-7l3-10z" fill="#1C1D1E"></path><path transform="translate(1214,993)" d="m0 0h1v12l-2 2v-5l-4-1v-4z" fill="#1A1B1C"></path><path transform="translate(825,918)" d="m0 0 4 4 3 5v2l-5 3-2-2z" fill="#191A1B"></path><path transform="translate(827,774)" d="m0 0 5 2v5l-2 2h-5v-6z" fill="#191A1B"></path><path transform="translate(1056,305)" d="m0 0h2l-1 20-3-2 1-17z" fill="#28292B"></path><path transform="translate(780,626)" d="m0 0 4 3 3 15h-2l-5-13z" fill="#1E2021"></path><path transform="translate(993,325)" d="m0 0h1l2 13v8h-2l-3-11 1-4z" fill="#252729"></path><path transform="translate(392,553)" d="m0 0h1v14l-1-4-5-2v-5l5-1z" fill="#191A1B"></path><path transform="translate(1208,341)" d="m0 0h3l-1 4-4 8-4 1 1-4z" fill="#252728"></path><path transform="translate(816,703)" d="m0 0 4 1 2 7v7h-2l-4-11z" fill="#1B1D1E"></path><path transform="translate(1449,407)" d="m0 0 5 2 7 3 1 6 1 2-4-2-8-8-2-1z" fill="#1F2021"></path><path transform="translate(1176,327)" d="m0 0 4 1-2 6-4 6h-1l1-9z" fill="#242527"></path><path transform="translate(1186,379)" d="m0 0h2l-2 9-5 5-1-4z" fill="#252728"></path><path transform="translate(515,1363)" d="m0 0 2 1 3 8-1 3-5-1v-9z" fill="#1B1C1D"></path><path transform="translate(1744,995)" d="m0 0h2v8l-3 1-4-4 1-3z" fill="#191A1B"></path><path transform="translate(937,310)" d="m0 0 3 1 2 8v4h-3l-3-8-1-4z" fill="#232426"></path><path transform="translate(1580,1212)" d="m0 0 1 3-2 8h-2l-1 5-3 3 1-7z" fill="#1D1E1F"></path><path transform="translate(807,683)" d="m0 0 3 3 6 12-1 4-2-3-6-12z" fill="#202122"></path><path transform="translate(637,628)" d="m0 0h6l-2 4-3 2h-5l-1-3h2v-2z" fill="#1B1D1E"></path><path transform="translate(1211,371)" d="m0 0 2 1-7 10h-3l-2 1 2-4 5-7 3 1z" fill="#282B2C"></path><path transform="translate(1694,920)" d="m0 0h2v7l-5 10h-2l3-10z" fill="#1D1F20"></path><path transform="translate(1221,852)" d="m0 0h4v9l-1-2-6-2v-3z" fill="#191A1B"></path><path transform="translate(301,918)" d="m0 0h1l1 5h3v2l2 1-1 2h-5v7h-1z" fill="#191A1B"></path><path transform="translate(1403,626)" d="m0 0 4 2 4 1v3l5 1v2l-7-1-6-6z" fill="#1D1E1F"></path><path transform="translate(1067,584)" d="m0 0h16v1l-14 2h-10l1-2z" fill="#2B2E2F"></path><path transform="translate(457,478)" d="m0 0h2l-1 7-5 1-2-1 2-4 4-1z" fill="#1A1B1C"></path><path transform="translate(736,445)" d="m0 0 6 3v3l3 1v7l-4-5-5-7z" fill="#2A2D2E"></path><path transform="translate(1551,1289)" d="m0 0 2 3-1 5-3 3-2 3v-7l3-6z" fill="#1B1C1D"></path><path transform="translate(872,1360)" d="m0 0 2 1 2 6-2 3h-4l1-9z" fill="#1C1D1E"></path><path transform="translate(930,348)" d="m0 0 8 8-1 4-4-2z" fill="#232526"></path><path transform="translate(1647,1068)" d="m0 0h2v3l2 1h-2v3l-3 3-3 4 1-7z" fill="#1D1E1F"></path><path transform="translate(1179,357)" d="m0 0h2l-2 6-3 6-2-1 1-7z" fill="#2F3233"></path><path transform="translate(1115,349)" d="m0 0 1 4-5 8-2-1 2-6z" fill="#242627"></path><path transform="translate(1565,1513)" d="m0 0h5l2 3v5l-4-2-3-4z" fill="#1D1E1F"></path><path transform="translate(384,307)" d="m0 0m-1 1m-1 1m-1 1m-1 1 1 4-3 1-5 6-4 2 2-4z" fill="#383A3C"></path><path transform="translate(1532,1362)" d="m0 0 1 3-3 9-3 3 1-6z" fill="#1F2122"></path><path transform="translate(1442,550)" d="m0 0 2 1v2l3 1-1 2-4-1-2-1-1 3h-2l2-5z" fill="#1A1C1D"></path><path transform="translate(1140,362)" d="m0 0h1v9l-1 2-4-1 2-6z" fill="#27292A"></path><path transform="translate(1512,1433)" d="m0 0 4 3 2 5 1 5h-2l-5-10z" fill="#1E1F20"></path><path transform="translate(351,669)" d="m0 0 2 1 1 8-6-1-1-2h2z" fill="#282B2C"></path><path transform="translate(460,1199)" d="m0 0 4 4 4 8v2h-2l-6-11z" fill="#1F2021"></path><path transform="translate(1585,471)" d="m0 0 6 6v6h-2l-4-9z" fill="#1E1F20"></path><path transform="translate(1190,372)" d="m0 0 1 3 2 1-5 9-1-4 1-5z" fill="#2D2F31"></path><path transform="translate(888,361)" d="m0 0 3 4 2 4-1 5h-2l-2-8z" fill="#2B2D2F"></path><path transform="translate(1742,1365)" d="m0 0 3 1v5h-5l-1-5z" fill="#191A1B"></path><path transform="translate(1211,400)" d="m0 0 1 3-4 5-4 1 2-5z" fill="#252728"></path><path transform="translate(510,1474)" d="m0 0 1 3-8 11-2-2z" fill="#2B2E2F"></path><path transform="translate(988,305)" d="m0 0h3l1 7h-2l-1 4z" fill="#2B2D2E"></path><path transform="translate(1055,322)" d="m0 0h1v10l-3 1v-7z" fill="#1F2021"></path></svg>